#N canvas 400 100 491 514 10;
#X text 177 82 Left Hand;
#X text 279 156 Right Hand;
#X obj 117 80 route I M;
#X obj 52 156 route I M;
#X obj 132 156 route I M;
#X obj 212 156 route I M;
#X text 206 121 none;
#X text 143 129 Middle;
#X text 83 127 Index;
#X msg 325 204 0;
#X msg 294 204 1;
#X msg 265 204 2;
#X msg 204 204 3;
#X msg 175 204 4;
#X msg 144 204 5;
#X msg 94 204 6;
#X msg 65 204 7;
#X msg 34 204 8;
#X obj 118 51 inlet hand_state;
#X obj 178 271 outlet;
#X connect 2 0 3 0;
#X connect 2 1 4 0;
#X connect 2 2 5 0;
#X connect 3 0 17 0;
#X connect 3 1 16 0;
#X connect 3 2 15 0;
#X connect 4 0 14 0;
#X connect 4 1 13 0;
#X connect 4 2 12 0;
#X connect 5 0 11 0;
#X connect 5 1 10 0;
#X connect 5 2 9 0;
#X connect 9 0 19 0;
#X connect 10 0 19 0;
#X connect 11 0 19 0;
#X connect 12 0 19 0;
#X connect 13 0 19 0;
#X connect 14 0 19 0;
#X connect 15 0 19 0;
#X connect 16 0 19 0;
#X connect 17 0 19 0;
#X connect 18 0 2 0;
