#N canvas 91 96 1333 650 10;
#X obj -352 -75 netreceive 8080;
#X floatatom -265 -45 5 0 0 0 - - -;
#X text -328 -47 # Clients:;
#X obj -333 60 s button;
#X obj -411 118 s accel_left;
#X obj -384 95 s accel_right;
#X obj -311 34 s flex;
#X obj 172 -89 r accel_right;
#X obj 36 -90 r accel_left;
#X floatatom 36 -149 5 0 0 0 - - -;
#X floatatom 74 -150 5 0 0 0 - - -;
#X floatatom 110 -150 5 0 0 0 - - -;
#X text 34 -166 x;
#X text 74 -168 y;
#X text 108 -167 z;
#X obj 36 -111 pack f f f;
#X obj 68 -128 bng 15 250 50 0 empty empty empty 17 7 0 10 -262144
-1 -1;
#X floatatom 172 -149 5 0 0 0 - - -;
#X floatatom 210 -150 5 0 0 0 - - -;
#X floatatom 246 -150 5 0 0 0 - - -;
#X text 170 -166 x;
#X text 210 -168 y;
#X text 244 -167 z;
#X obj 172 -111 pack f f f;
#X obj 204 -128 bng 15 250 50 0 empty empty empty 17 7 0 10 -262144
-1 -1;
#X obj 172 -65 unpack f f f;
#X floatatom 172 -20 5 0 0 0 - - -;
#X floatatom 207 -20 5 0 0 0 - - -;
#X floatatom 241 -19 5 0 0 0 - - -;
#X obj 176 327 outlet ACC_R_X;
#X obj 211 357 outlet ACC_R_Y;
#X obj 246 390 outlet ACC_R_Z;
#X obj -355 -23 inlet;
#X obj 36 -69 unpack f f f;
#X obj 36 323 outlet ACC_L_X;
#X obj 71 354 outlet ACC_L_Y;
#X obj 106 393 outlet ACC_L_Z;
#X text 164 -177 R accel;
#X text 28 -177 L accel;
#X obj 21 105 cnv 15 600 190 empty empty Articulate_Suit 20 12 0 14
-204800 -66577 0;
#X floatatom 176 275 5 0 0 0 - - -;
#X floatatom 211 275 5 0 0 0 - - -;
#X floatatom 246 275 5 0 0 0 - - -;
#X text 112 225 Accelerometers;
#X text 202 244 Right;
#X text 177 258 X;
#X text 210 258 Y;
#X text 246 259 Z;
#X floatatom 36 275 5 0 0 0 - - -;
#X floatatom 71 275 5 0 0 0 - - -;
#X floatatom 106 275 5 0 0 0 - - -;
#X text 37 258 X;
#X text 70 258 Y;
#X text 106 259 Z;
#X text 65 244 Left;
#X floatatom 36 -23 5 0 0 0 - - -;
#X floatatom 71 -23 5 0 0 0 - - -;
#X floatatom 105 -22 5 0 0 0 - - -;
#X obj 40 10 accelfilter;
#X obj -260 35 s gyroscope;
#X obj -271 59 s magnetometer;
#X obj 579 331 outlet right_hand;
#X obj 559 307 outlet left_hand;
#X obj 559 -98 r button;
#X obj 559 -73 route L R;
#X text 542 210 Hand Buttons;
#X obj 559 240 vradio 15 1 0 3 empty empty empty 0 -8 0 10 -262144
-1 -1 0;
#X text 544 254 I;
#X text 544 269 M;
#X text 544 239 N;
#X obj 579 240 vradio 15 1 0 3 empty empty empty 0 -8 0 10 -262144
-1 -1 1;
#X text 582 223 R;
#X text 562 223 L;
#X obj 610 -44 print suit_button;
#X obj -172 54 print suit;
#X obj 654 137 loadbang;
#X msg 654 157 0;
#X obj -379 2 route ACC BTN FLEX MGN GYR;
#X obj -411 67 route L R;
#X obj 176 13 accelfilter;
#X obj 306 17 r flex;
#X floatatom 306 275 5 0 0 2 L - -;
#X obj 306 46 route L R;
#X floatatom 356 275 5 0 0 2 R - -;
#X text 317 244 FLEX;
#X obj 306 308 outlet FLEX_L;
#X obj 356 330 outlet FLEX_R;
#X obj 490 21 select 10 20;
#X msg 524 61 0;
#X obj 550 -19 select 10 20;
#X msg 584 21 0;
#X connect 0 0 77 0;
#X connect 0 1 1 0;
#X connect 7 0 25 0;
#X connect 8 0 33 0;
#X connect 9 0 15 0;
#X connect 9 0 16 0;
#X connect 10 0 15 1;
#X connect 10 0 16 0;
#X connect 11 0 15 2;
#X connect 11 0 16 0;
#X connect 15 0 33 0;
#X connect 16 0 15 0;
#X connect 17 0 23 0;
#X connect 17 0 24 0;
#X connect 18 0 23 1;
#X connect 18 0 24 0;
#X connect 19 0 23 2;
#X connect 19 0 24 0;
#X connect 23 0 25 0;
#X connect 24 0 23 0;
#X connect 25 0 26 0;
#X connect 25 1 27 0;
#X connect 25 2 28 0;
#X connect 26 0 79 0;
#X connect 27 0 79 1;
#X connect 28 0 79 2;
#X connect 32 0 77 0;
#X connect 33 0 55 0;
#X connect 33 1 56 0;
#X connect 33 2 57 0;
#X connect 40 0 29 0;
#X connect 41 0 30 0;
#X connect 42 0 31 0;
#X connect 48 0 34 0;
#X connect 49 0 35 0;
#X connect 50 0 36 0;
#X connect 55 0 58 0;
#X connect 56 0 58 1;
#X connect 57 0 58 2;
#X connect 58 0 48 0;
#X connect 58 1 49 0;
#X connect 58 2 50 0;
#X connect 63 0 64 0;
#X connect 64 0 87 0;
#X connect 64 1 89 0;
#X connect 64 2 73 0;
#X connect 66 0 62 0;
#X connect 70 0 61 0;
#X connect 75 0 76 0;
#X connect 76 0 66 0;
#X connect 76 0 70 0;
#X connect 77 0 78 0;
#X connect 77 1 3 0;
#X connect 77 2 6 0;
#X connect 77 3 60 0;
#X connect 77 4 59 0;
#X connect 77 5 74 0;
#X connect 78 0 4 0;
#X connect 78 1 5 0;
#X connect 79 0 40 0;
#X connect 79 1 41 0;
#X connect 79 2 42 0;
#X connect 80 0 82 0;
#X connect 81 0 85 0;
#X connect 82 0 81 0;
#X connect 82 1 83 0;
#X connect 83 0 86 0;
#X connect 87 0 88 0;
#X connect 87 1 88 0;
#X connect 87 2 66 0;
#X connect 88 0 66 0;
#X connect 89 0 90 0;
#X connect 89 1 90 0;
#X connect 89 2 70 0;
#X connect 90 0 70 0;
#X coords 0 -1 1 1 602 200 1 20 100;
