#N canvas 203 146 979 368 10;
#X obj 16 6 inlet~;
#X obj 16 59 outlet~;
#N canvas 0 22 774 606 rgb 0;
#X obj 296 207 * 256;
#X obj 344 180 * 256;
#X obj 346 201 * 256;
#X obj 312 270 +;
#X obj 298 228 t b f;
#X obj 312 293 +;
#X obj 346 223 t b f;
#X obj 252 186 int;
#X msg 263 68 0;
#X obj 252 163 * -1;
#X obj 296 162 * -1;
#X obj 343 158 * -1;
#X obj 103 123 vsl 10 40 1 255 0 0 ertteetyeyterttretretrrtrtrtrtrt
hhghghghghghghgggggh empty 0 -8 0 10 -4160 -262144 -1 0 0;
#X obj 115 123 vsl 10 40 1 255 0 0 ertteetyeyterttretretrrtrtrtrtrt
hhghghghghghghgggggh empty 0 -8 0 10 -4034 -262144 -1 0 0;
#X obj 127 123 vsl 10 40 1 255 0 0 ertteetyeyterttretretrrtrtrtrtrt
hhghghghghghghgggggh empty 0 -8 0 10 -258113 -262144 -1 0 0;
#X obj 252 144 int;
#X obj 293 142 int;
#X obj 342 138 int;
#N canvas 0 22 474 324 list-enumerate 0;
#X obj 107 63 t a b;
#N canvas 473 338 454 304 count 0;
#X obj 131 154 f 0;
#X obj 156 153 + 1;
#X msg 147 133 0;
#X obj 131 183 outlet;
#X obj 131 59 inlet;
#X obj 131 96 b;
#X obj 178 61 inlet;
#X obj 178 98 b;
#X connect 0 0 1 0;
#X connect 0 0 3 0;
#X connect 1 0 0 1;
#X connect 2 0 0 1;
#X connect 4 0 5 0;
#X connect 5 0 0 0;
#X connect 6 0 7 0;
#X connect 7 0 2 0;
#X restore 186 155 pd count;
#X obj 107 113 t a b;
#X obj 107 33 inlet;
#X obj 107 181 list prepend;
#X obj 126 264 outlet;
#X obj 184 264 outlet;
#N canvas 0 22 537 411 drip 0;
#X obj 64 206 list split 1;
#X obj 64 123 until;
#X obj 64 181 list append;
#X obj 194 206 bang;
#X text 146 90 First store list \, then start the loop;
#X text 163 118 "until" bangs its output until told to stop by a "bang"
to its right inlet.;
#X text 182 160 Store the remaining list.;
#X text 239 205 third outlet of "split" tells us to stop.;
#X obj 64 243 outlet;
#X obj 64 57 inlet;
#X text 237 44 From list-help.pd;
#X obj 143 243 outlet;
#X obj 64 86 t b a;
#X connect 0 0 8 0;
#X connect 0 1 2 1;
#X connect 0 2 3 0;
#X connect 0 2 11 0;
#X connect 1 0 2 0;
#X connect 2 0 0 0;
#X connect 3 0 1 1;
#X connect 9 0 12 0;
#X connect 12 0 1 0;
#X connect 12 1 2 1;
#X restore 110 88 pd drip;
#X obj 68 155 list prepend color;
#X msg 69 135 \$1 0 28;
#X connect 0 0 7 0;
#X connect 0 1 1 1;
#X connect 1 0 4 1;
#X connect 2 0 9 0;
#X connect 2 1 1 0;
#X connect 3 0 0 0;
#X connect 4 0 5 0;
#X connect 7 0 2 0;
#X connect 7 1 6 0;
#X connect 8 0 4 0;
#X connect 9 0 8 0;
#X restore 294 389 pd list-enumerate;
#X obj 299 419 s \$0-controls;
#X msg 306 356 \$1 \$1 \$1 \$1 \$1 \$1 \$1 \$1 \$1 \$1 \$1 \$1 \$1
\$1 \$1 \$1;
#X connect 0 0 4 0;
#X connect 1 0 2 0;
#X connect 2 0 6 0;
#X connect 3 0 5 0;
#X connect 4 0 3 0;
#X connect 4 1 3 1;
#X connect 5 0 20 0;
#X connect 6 0 3 0;
#X connect 6 1 5 1;
#X connect 7 0 3 0;
#X connect 8 0 12 0;
#X connect 8 0 13 0;
#X connect 8 0 14 0;
#X connect 9 0 7 0;
#X connect 10 0 0 0;
#X connect 11 0 1 0;
#X connect 12 0 15 0;
#X connect 13 0 16 0;
#X connect 14 0 17 0;
#X connect 15 0 9 0;
#X connect 16 0 10 0;
#X connect 17 0 11 0;
#X connect 18 0 19 0;
#X connect 20 0 18 0;
#X coords 0 -1 1 1 40 70 1 100 100;
#X restore 84 237 pd rgb;
#X obj 658 6 inlet modulation-add;
#X obj 786 6 inlet modulation-multiply;
#X obj 480 8 r \$0-values;
#X obj 659 26 list prepend add;
#X obj 787 27 list prepend mul;
#X obj 369 13 inlet controls;
#X obj 368 47 s \$0-controls;
#N canvas 139 121 1068 587 modulate.oOo..oOo..oOo.. 0;
#X obj 61 8 inlet;
#X obj 99 490 outlet;
#X obj 155 486 outlet;
#X obj 208 489 outlet;
#X obj 264 489 outlet;
#X obj 318 486 outlet;
#X obj 370 486 outlet;
#X obj 849 72 inlet;
#X obj 84 391 +;
#X obj 84 370 t b f;
#X obj 102 102 route 0 1 2 3 4 5 6 7;
#X obj 357 326 route 0 1 2 3 4 5 6 7;
#X obj 121 391 +;
#X obj 121 370 t b f;
#X obj 158 391 +;
#X obj 158 370 t b f;
#X obj 195 391 +;
#X obj 195 370 t b f;
#X obj 231 391 +;
#X obj 231 370 t b f;
#X obj 269 391 +;
#X obj 269 370 t b f;
#X obj 306 391 +;
#X obj 306 370 t b f;
#X obj 343 391 +;
#X obj 343 370 t b f;
#X obj 445 505 outlet;
#X obj 512 504 outlet;
#X obj 98 429 clip 0 1;
#X obj 152 431 clip 0 1;
#X obj 206 432 clip 0 1;
#X obj 260 434 clip 0 1;
#X obj 314 436 clip 0 1;
#X obj 368 438 clip 0 1;
#X obj 422 439 clip 0 1;
#X obj 476 441 clip 0 1;
#X obj 77 262 t b f;
#X obj 116 265 t b f;
#X obj 153 265 t b f;
#X obj 190 265 t b f;
#X obj 226 265 t b f;
#X obj 264 265 t b f;
#X obj 301 265 t b f;
#X obj 338 265 t b f;
#X obj 78 286 * 1;
#X obj 116 286 * 1;
#X obj 153 286 * 1;
#X obj 191 285 * 1;
#X obj 226 286 * 1;
#X obj 264 286 * 1;
#X obj 301 286 * 1;
#X obj 338 286 * 1;
#X obj 327 225 route 0 1 2 3 4 5 6 7;
#X obj 568 501 outlet;
#X obj 624 497 outlet;
#X obj 677 500 outlet;
#X obj 733 500 outlet;
#X obj 787 497 outlet;
#X obj 839 497 outlet;
#X obj 894 496 outlet;
#X obj 961 495 outlet;
#X obj 547 420 clip 0 1;
#X obj 601 422 clip 0 1;
#X obj 655 423 clip 0 1;
#X obj 709 425 clip 0 1;
#X obj 763 427 clip 0 1;
#X obj 817 429 clip 0 1;
#X obj 871 430 clip 0 1;
#X obj 925 432 clip 0 1;
#X msg 99 130 \$1 20;
#X msg 112 150 \$1 20;
#X msg 140 131 \$1 20;
#X msg 153 151 \$1 20;
#X msg 181 130 \$1 20;
#X msg 194 150 \$1 20;
#X msg 222 131 \$1 20;
#X msg 235 151 \$1 20;
#X obj 112 191 line 0 1;
#X obj 126 211 line 0 1;
#X obj 169 186 line 0 1;
#X obj 186 209 line 0 1;
#X obj 227 183 line 0 1;
#X obj 244 206 line 0 1;
#X obj 284 178 line 0 1;
#X obj 301 201 line 0 1;
#X msg 521 71 \$1 20;
#X msg 534 91 \$1 20;
#X msg 562 72 \$1 20;
#X msg 575 92 \$1 20;
#X msg 603 71 \$1 20;
#X msg 616 91 \$1 20;
#X msg 644 72 \$1 20;
#X msg 657 92 \$1 20;
#X obj 532 131 line 0 1;
#X obj 591 127 line 0 1;
#X obj 608 150 line 0 1;
#X obj 649 124 line 0 1;
#X obj 666 147 line 0 1;
#X obj 706 119 line 0 1;
#X obj 723 142 line 0 1;
#X obj 524 42 route 8 9 10 11 12 13 14 15;
#X obj 550 152 line 0 1;
#X obj 865 114 list trim;
#X obj 438 197 route mul add;
#X obj 534 361 +;
#X obj 534 340 t b f;
#X obj 571 361 +;
#X obj 571 340 t b f;
#X obj 608 361 +;
#X obj 608 340 t b f;
#X obj 645 361 +;
#X obj 645 340 t b f;
#X obj 681 361 +;
#X obj 681 340 t b f;
#X obj 719 361 +;
#X obj 719 340 t b f;
#X obj 756 361 +;
#X obj 756 340 t b f;
#X obj 793 361 +;
#X obj 793 340 t b f;
#X obj 527 232 t b f;
#X obj 566 235 t b f;
#X obj 603 235 t b f;
#X obj 640 235 t b f;
#X obj 676 235 t b f;
#X obj 714 235 t b f;
#X obj 751 235 t b f;
#X obj 788 235 t b f;
#X obj 528 256 * 1;
#X obj 566 256 * 1;
#X obj 603 256 * 1;
#X obj 641 255 * 1;
#X obj 676 256 * 1;
#X obj 714 256 * 1;
#X obj 751 256 * 1;
#X obj 788 256 * 1;
#X obj 888 167 route mul add;
#X obj 777 195 route 8 9 10 11 12 13 14 15;
#X obj 807 296 route 8 9 10 11 12 13 14 15;
#X connect 0 0 10 0;
#X connect 0 0 100 0;
#X connect 7 0 102 0;
#X connect 8 0 28 0;
#X connect 9 0 8 0;
#X connect 9 1 8 1;
#X connect 10 0 69 0;
#X connect 10 1 70 0;
#X connect 10 2 71 0;
#X connect 10 3 72 0;
#X connect 10 4 73 0;
#X connect 10 5 74 0;
#X connect 10 6 75 0;
#X connect 10 7 76 0;
#X connect 11 0 8 0;
#X connect 11 1 12 0;
#X connect 11 2 14 0;
#X connect 11 3 16 0;
#X connect 11 4 18 0;
#X connect 11 5 20 0;
#X connect 11 6 22 0;
#X connect 11 7 24 0;
#X connect 12 0 29 0;
#X connect 13 0 12 0;
#X connect 13 1 12 1;
#X connect 14 0 30 0;
#X connect 15 0 14 0;
#X connect 15 1 14 1;
#X connect 16 0 31 0;
#X connect 17 0 16 0;
#X connect 17 1 16 1;
#X connect 18 0 32 0;
#X connect 19 0 18 0;
#X connect 19 1 18 1;
#X connect 20 0 33 0;
#X connect 21 0 20 0;
#X connect 21 1 20 1;
#X connect 22 0 34 0;
#X connect 23 0 22 0;
#X connect 23 1 22 1;
#X connect 24 0 35 0;
#X connect 25 0 24 0;
#X connect 25 1 24 1;
#X connect 28 0 1 0;
#X connect 29 0 2 0;
#X connect 30 0 3 0;
#X connect 31 0 4 0;
#X connect 32 0 5 0;
#X connect 33 0 6 0;
#X connect 34 0 26 0;
#X connect 35 0 27 0;
#X connect 36 0 44 0;
#X connect 36 1 44 1;
#X connect 37 0 45 0;
#X connect 37 1 45 1;
#X connect 38 0 46 0;
#X connect 38 1 46 1;
#X connect 39 0 47 0;
#X connect 39 1 47 1;
#X connect 40 0 48 0;
#X connect 40 1 48 1;
#X connect 41 0 49 0;
#X connect 41 1 49 1;
#X connect 42 0 50 0;
#X connect 42 1 50 1;
#X connect 43 0 51 0;
#X connect 43 1 51 1;
#X connect 44 0 9 0;
#X connect 45 0 13 0;
#X connect 46 0 15 0;
#X connect 47 0 17 0;
#X connect 48 0 19 0;
#X connect 49 0 21 0;
#X connect 50 0 23 0;
#X connect 51 0 25 0;
#X connect 52 0 36 0;
#X connect 52 1 37 0;
#X connect 52 2 38 0;
#X connect 52 3 39 0;
#X connect 52 4 40 0;
#X connect 52 5 41 0;
#X connect 52 6 42 0;
#X connect 52 7 43 0;
#X connect 61 0 53 0;
#X connect 62 0 54 0;
#X connect 63 0 55 0;
#X connect 64 0 56 0;
#X connect 65 0 57 0;
#X connect 66 0 58 0;
#X connect 67 0 59 0;
#X connect 68 0 60 0;
#X connect 69 0 77 0;
#X connect 70 0 78 0;
#X connect 71 0 79 0;
#X connect 72 0 80 0;
#X connect 73 0 81 0;
#X connect 74 0 82 0;
#X connect 75 0 83 0;
#X connect 76 0 84 0;
#X connect 77 0 36 0;
#X connect 78 0 37 0;
#X connect 79 0 38 0;
#X connect 80 0 39 0;
#X connect 81 0 40 0;
#X connect 82 0 41 0;
#X connect 83 0 42 0;
#X connect 84 0 43 0;
#X connect 85 0 93 0;
#X connect 86 0 101 0;
#X connect 87 0 94 0;
#X connect 88 0 95 0;
#X connect 89 0 96 0;
#X connect 90 0 97 0;
#X connect 91 0 98 0;
#X connect 92 0 99 0;
#X connect 93 0 120 0;
#X connect 94 0 122 0;
#X connect 95 0 123 0;
#X connect 96 0 124 0;
#X connect 97 0 125 0;
#X connect 98 0 126 0;
#X connect 99 0 127 0;
#X connect 100 0 85 0;
#X connect 100 1 86 0;
#X connect 100 2 87 0;
#X connect 100 3 88 0;
#X connect 100 4 89 0;
#X connect 100 5 90 0;
#X connect 100 6 91 0;
#X connect 100 7 92 0;
#X connect 101 0 121 0;
#X connect 102 0 103 0;
#X connect 102 0 136 0;
#X connect 103 0 52 0;
#X connect 103 1 11 0;
#X connect 104 0 61 0;
#X connect 105 0 104 0;
#X connect 105 1 104 1;
#X connect 106 0 62 0;
#X connect 107 0 106 0;
#X connect 107 1 106 1;
#X connect 108 0 63 0;
#X connect 109 0 108 0;
#X connect 109 1 108 1;
#X connect 110 0 64 0;
#X connect 111 0 110 0;
#X connect 111 1 110 1;
#X connect 112 0 65 0;
#X connect 113 0 112 0;
#X connect 113 1 112 1;
#X connect 114 0 66 0;
#X connect 115 0 114 0;
#X connect 115 1 114 1;
#X connect 116 0 67 0;
#X connect 117 0 116 0;
#X connect 117 1 116 1;
#X connect 118 0 68 0;
#X connect 119 0 118 0;
#X connect 119 1 118 1;
#X connect 120 0 128 0;
#X connect 120 1 128 1;
#X connect 121 0 129 0;
#X connect 121 1 129 1;
#X connect 122 0 130 0;
#X connect 122 1 130 1;
#X connect 123 0 131 0;
#X connect 123 1 131 1;
#X connect 124 0 132 0;
#X connect 124 1 132 1;
#X connect 125 0 133 0;
#X connect 125 1 133 1;
#X connect 126 0 134 0;
#X connect 126 1 134 1;
#X connect 127 0 135 0;
#X connect 127 1 135 1;
#X connect 128 0 105 0;
#X connect 129 0 107 0;
#X connect 130 0 109 0;
#X connect 131 0 111 0;
#X connect 132 0 113 0;
#X connect 133 0 115 0;
#X connect 134 0 117 0;
#X connect 135 0 119 0;
#X connect 136 0 137 0;
#X connect 136 1 138 0;
#X connect 137 0 120 0;
#X connect 137 1 121 0;
#X connect 137 2 122 0;
#X connect 137 3 123 0;
#X connect 137 4 124 0;
#X connect 137 5 125 0;
#X connect 137 6 126 0;
#X connect 137 7 127 0;
#X connect 138 0 104 0;
#X connect 138 1 106 0;
#X connect 138 2 108 0;
#X connect 138 3 110 0;
#X connect 138 4 112 0;
#X connect 138 5 114 0;
#X connect 138 6 116 0;
#X connect 138 7 118 0;
#X restore 482 68 pd modulate.oOo..oOo..oOo..;
#N canvas 147 22 631 596 workings 0;
#X obj 70 121 inlet~ signal;
#X obj 252 521 outlet~;
#X obj 334 400 r \$0-gain;
#N canvas 0 22 462 312 rh_scalelog 0;
#X obj 20 155 exp;
#X obj 20 107 *;
#X obj 20 130 +;
#X obj 98 87 log;
#X obj 194 84 log;
#X obj 123 123 t b f;
#X obj 123 145 -;
#X obj 20 183 outlet;
#X obj 20 19 inlet;
#X obj 98 23 inlet;
#X obj 194 24 inlet;
#X connect 0 0 7 0;
#X connect 1 0 2 0;
#X connect 2 0 0 0;
#X connect 3 0 2 1;
#X connect 3 0 5 0;
#X connect 4 0 6 0;
#X connect 5 0 6 0;
#X connect 5 1 6 1;
#X connect 6 0 1 1;
#X connect 8 0 1 0;
#X connect 9 0 3 0;
#X connect 10 0 4 0;
#X restore 334 478 pd rh_scalelog;
#X msg 381 454 0.1;
#X msg 427 454 10;
#X obj 254 489 *~;
#X obj 220 315 *~;
#X obj 335 300 line~;
#X obj 221 220 osc~;
#X obj 221 270 abs~;
#X obj 184 167 line~;
#X obj 184 68 r \$0-speed;
#X obj 185 94 expr pow($f1 \, 4);
#X obj 184 125 * 100;
#X obj 335 208 r \$0-depth;
#X obj 334 227 expr pow($f1 \, 4);
#X obj 335 250 * 500;
#X obj 67 309 delwrite~ \$0-wobble 500;
#X obj 221 389 vd~ \$0-wobble;
#X obj 66 253 *~;
#X obj 97 235 line~;
#X obj 91 166 r \$0-feedback;
#X msg 336 277 \$1 5;
#X msg 181 146 \$1 5;
#X msg 94 214 \$1 5;
#X obj 92 192 * 0.975;
#X obj 382 426 r \$0-loadbang;
#X obj 242 169 r \$0-phase;
#X connect 0 0 18 0;
#X connect 2 0 3 0;
#X connect 3 0 6 1;
#X connect 4 0 3 1;
#X connect 5 0 3 2;
#X connect 6 0 1 0;
#X connect 7 0 19 0;
#X connect 8 0 7 1;
#X connect 9 0 10 0;
#X connect 10 0 7 0;
#X connect 11 0 9 0;
#X connect 12 0 13 0;
#X connect 13 0 14 0;
#X connect 14 0 24 0;
#X connect 15 0 16 0;
#X connect 16 0 17 0;
#X connect 17 0 23 0;
#X connect 19 0 20 0;
#X connect 19 0 6 0;
#X connect 20 0 18 0;
#X connect 21 0 20 1;
#X connect 22 0 26 0;
#X connect 23 0 8 0;
#X connect 24 0 11 0;
#X connect 25 0 21 0;
#X connect 26 0 25 0;
#X connect 27 0 4 0;
#X connect 27 0 5 0;
#X connect 28 0 9 1;
#X restore 17 30 pd workings;
#X obj 722 106 s \$0-gain;
#X obj 481 113 s \$0-speed;
#X obj 564 108 s \$0-depth;
#X obj 635 108 s \$0-feedback;
#X msg 402 235 speed depth feedback gain;
#X msg 597 252 0.4 0.3 0.4 0.49;
#X obj 645 165 loadbang;
#X obj 645 189 t b b;
#X obj 674 214 s \$0-loadbang;
#X obj 125 129 hsl 60 10 0 1 0 0 \$0-a \$0-ra speed -2 -7 0 10 -26756
-262144 -355 2360 1;
#X obj 125 152 hsl 60 10 0 1 0 0 \$0-c \$0-rc feedback -2 -7 0 10 -26756
-262144 -355 2360 1;
#X obj 212 129 hsl 60 10 0 1 0 0 \$0-b \$0-rb depth -2 -7 0 10 -26756
-262144 -355 1770 1;
#X obj 212 152 hsl 60 10 0 1 0 0 \$0-d \$0-rd gain -2 -7 0 10 -26756
-262144 -355 2891 1;
#X obj 105 126 cnv 12 15 13 empty empty 0 1 6 0 12 -33289 -262144 0
;
#X obj 105 149 cnv 12 15 13 empty empty 2 1 6 0 12 -33289 -262144 0
;
#X obj 192 126 cnv 12 15 13 empty empty 1 1 6 0 12 -33289 -262144 0
;
#X obj 192 149 cnv 12 15 13 empty empty 3 1 6 0 12 -33289 -262144 0
;
#N canvas 361 43 833 682 list-functions 0;
#N canvas 0 22 462 312 list-enumerate 0;
#X obj 107 63 t a b;
#N canvas 473 338 454 304 count 0;
#X obj 131 154 f 0;
#X obj 156 153 + 1;
#X msg 147 133 0;
#X obj 131 183 outlet;
#X obj 131 59 inlet;
#X obj 131 96 b;
#X obj 178 61 inlet;
#X obj 178 98 b;
#X connect 0 0 1 0;
#X connect 0 0 3 0;
#X connect 1 0 0 1;
#X connect 2 0 0 1;
#X connect 4 0 5 0;
#X connect 5 0 0 0;
#X connect 6 0 7 0;
#X connect 7 0 2 0;
#X restore 186 155 pd count;
#X obj 107 113 t a b;
#X obj 107 33 inlet;
#X obj 107 181 list prepend;
#X obj 107 209 outlet;
#X obj 165 209 outlet;
#N canvas 0 22 537 411 drip 0;
#X obj 64 206 list split 1;
#X obj 64 123 until;
#X obj 64 181 list append;
#X obj 194 206 bang;
#X text 146 90 First store list \, then start the loop;
#X text 163 118 "until" bangs its output until told to stop by a "bang"
to its right inlet.;
#X text 182 160 Store the remaining list.;
#X text 239 205 third outlet of "split" tells us to stop.;
#X obj 64 243 outlet;
#X obj 64 57 inlet;
#X text 237 44 From list-help.pd;
#X obj 143 243 outlet;
#X obj 64 86 t b a;
#X connect 0 0 8 0;
#X connect 0 1 2 1;
#X connect 0 2 3 0;
#X connect 0 2 11 0;
#X connect 1 0 2 0;
#X connect 2 0 0 0;
#X connect 3 0 1 1;
#X connect 9 0 12 0;
#X connect 12 0 1 0;
#X connect 12 1 2 1;
#X restore 110 88 pd drip;
#X obj 76 154 list prepend label;
#X connect 0 0 7 0;
#X connect 0 1 1 1;
#X connect 1 0 4 1;
#X connect 2 0 8 0;
#X connect 2 1 1 0;
#X connect 3 0 0 0;
#X connect 4 0 5 0;
#X connect 7 0 2 0;
#X connect 7 1 6 0;
#X connect 8 0 4 0;
#X restore 37 184 pd list-enumerate;
#X obj 37 230 s \$0-controls;
#N canvas 0 22 482 332 list-enumerate 0;
#N canvas 473 338 458 308 count 0;
#X obj 131 154 f 0;
#X obj 156 153 + 1;
#X msg 147 133 0;
#X obj 131 183 outlet;
#X obj 131 59 inlet;
#X obj 131 96 b;
#X obj 178 61 inlet;
#X obj 178 98 b;
#X connect 0 0 1 0;
#X connect 0 0 3 0;
#X connect 1 0 0 1;
#X connect 2 0 0 1;
#X connect 4 0 5 0;
#X connect 5 0 0 0;
#X connect 6 0 7 0;
#X connect 7 0 2 0;
#X restore 186 155 pd count;
#X obj 107 113 t a b;
#X obj 107 33 inlet;
#X obj 107 181 list prepend;
#X obj 112 253 outlet;
#N canvas 0 22 541 415 drip 0;
#X obj 64 206 list split 1;
#X obj 64 123 until;
#X obj 64 181 list append;
#X obj 194 206 bang;
#X text 146 90 First store list \, then start the loop;
#X text 163 118 "until" bangs its output until told to stop by a "bang"
to its right inlet.;
#X text 182 160 Store the remaining list.;
#X text 239 205 third outlet of "split" tells us to stop.;
#X obj 64 243 outlet;
#X obj 64 57 inlet;
#X text 237 44 From list-help.pd;
#X obj 143 243 outlet;
#X obj 64 86 t b a;
#X connect 0 0 8 0;
#X connect 0 1 2 1;
#X connect 0 2 3 0;
#X connect 0 2 11 0;
#X connect 1 0 2 0;
#X connect 2 0 0 0;
#X connect 3 0 1 1;
#X connect 9 0 12 0;
#X connect 12 0 1 0;
#X connect 12 1 2 1;
#X restore 110 88 pd drip;
#X obj 107 63 t a b;
#X connect 0 0 3 1;
#X connect 1 0 3 0;
#X connect 1 1 0 0;
#X connect 2 0 6 0;
#X connect 3 0 4 0;
#X connect 5 0 1 0;
#X connect 6 0 5 0;
#X connect 6 1 0 1;
#X restore 149 183 pd list-enumerate;
#X obj 190 231 808_state \$1/controls;
#N canvas 0 22 498 348 list-enumerate 0;
#N canvas 473 338 458 308 count 0;
#X obj 131 154 f 0;
#X obj 156 153 + 1;
#X msg 147 133 0;
#X obj 131 183 outlet;
#X obj 131 59 inlet;
#X obj 131 96 b;
#X obj 178 61 inlet;
#X obj 178 98 b;
#X connect 0 0 1 0;
#X connect 0 0 3 0;
#X connect 1 0 0 1;
#X connect 2 0 0 1;
#X connect 4 0 5 0;
#X connect 5 0 0 0;
#X connect 6 0 7 0;
#X connect 7 0 2 0;
#X restore 186 155 pd count;
#X obj 107 113 t a b;
#X obj 107 33 inlet;
#X obj 107 181 list prepend;
#X obj 112 253 outlet;
#N canvas 0 22 541 415 drip 0;
#X obj 64 206 list split 1;
#X obj 64 123 until;
#X obj 64 181 list append;
#X obj 194 206 bang;
#X text 146 90 First store list \, then start the loop;
#X text 163 118 "until" bangs its output until told to stop by a "bang"
to its right inlet.;
#X text 182 160 Store the remaining list.;
#X text 239 205 third outlet of "split" tells us to stop.;
#X obj 64 243 outlet;
#X obj 64 57 inlet;
#X text 237 44 From list-help.pd;
#X obj 143 243 outlet;
#X obj 64 86 t b a;
#X connect 0 0 8 0;
#X connect 0 1 2 1;
#X connect 0 2 3 0;
#X connect 0 2 11 0;
#X connect 1 0 2 0;
#X connect 2 0 0 0;
#X connect 3 0 1 1;
#X connect 9 0 12 0;
#X connect 12 0 1 0;
#X connect 12 1 2 1;
#X restore 110 88 pd drip;
#X obj 194 215 t a;
#X obj 106 209 list prepend;
#X obj 107 63 t a b b;
#X connect 0 0 3 1;
#X connect 1 0 3 0;
#X connect 1 1 0 0;
#X connect 2 0 8 0;
#X connect 3 0 7 0;
#X connect 5 0 1 0;
#X connect 6 0 7 1;
#X connect 7 0 6 0;
#X connect 7 0 4 0;
#X connect 8 0 5 0;
#X connect 8 1 0 1;
#X connect 8 2 7 1;
#X restore 411 149 pd list-enumerate;
#X obj 104 251 r \$0-controls;
#X obj 272 98 r \$0-values;
#N canvas 283 65 551 703 replacelist 0;
#X obj 164 224 list;
#X obj 327 98 inlet;
#X obj 250 98 inlet;
#X text 331 72 orig;
#X text 256 74 pos;
#X text 77 70 list to insert;
#X obj 85 94 inlet;
#X obj 207 281 list split;
#X obj 85 526 list;
#X obj 85 598 outlet;
#X obj 85 317 list prepend;
#X obj 85 120 t a b a b;
#X obj 85 430 list prepend 0;
#X obj 250 125 t f f;
#X obj 207 524 list prepend;
#X obj 85 469 route 0 1;
#X obj 316 347 f;
#X obj 286 282 t a b;
#X obj 316 377 > 0;
#X obj 122 358 r \$0-init;
#X obj 122 377 0;
#X obj 300 524 r \$0-init;
#X obj 176 317 r \$0-init;
#X obj 118 527 r \$0-init;
#X obj 159 131 s \$0-init;
#X text 47 25 list-replace: Replace the list starting at position POS
with a new list \, overwriting the old elements.;
#N canvas 0 22 458 308 length 0;
#X obj 171 164 + 1;
#X obj 92 127 b;
#X obj 126 204 f;
#X obj 158 138 1;
#X obj 142 166 f 1;
#X obj 216 168 0;
#X obj 136 59 t a b b;
#N canvas 0 22 537 411 drip 0;
#X obj 64 206 list split 1;
#X obj 64 123 until;
#X obj 64 181 list append;
#X obj 194 206 bang;
#X text 146 90 First store list \, then start the loop;
#X text 163 118 "until" bangs its output until told to stop by a "bang"
to its right inlet.;
#X text 182 160 Store the remaining list.;
#X text 239 205 third outlet of "split" tells us to stop.;
#X obj 64 243 outlet;
#X obj 64 57 inlet;
#X text 237 44 From list-help.pd;
#X obj 143 243 outlet;
#X obj 64 86 t b a;
#X connect 0 0 8 0;
#X connect 0 1 2 1;
#X connect 0 2 3 0;
#X connect 0 2 11 0;
#X connect 1 0 2 0;
#X connect 2 0 0 0;
#X connect 3 0 1 1;
#X connect 9 0 12 0;
#X connect 12 0 1 0;
#X connect 12 1 2 1;
#X restore 92 104 pd drip;
#X obj 137 36 inlet;
#X obj 125 238 outlet;
#X connect 0 0 4 1;
#X connect 1 0 4 0;
#X connect 2 0 9 0;
#X connect 3 0 4 1;
#X connect 4 0 0 0;
#X connect 4 0 2 1;
#X connect 5 0 2 1;
#X connect 6 0 7 0;
#X connect 6 1 3 0;
#X connect 6 2 5 0;
#X connect 7 0 1 0;
#X connect 7 1 2 0;
#X connect 8 0 6 0;
#X restore 268 216 pd length;
#X obj 162 254 list split;
#X connect 0 0 27 0;
#X connect 1 0 0 1;
#X connect 2 0 13 0;
#X connect 6 0 11 0;
#X connect 7 1 8 1;
#X connect 7 1 14 1;
#X connect 8 0 9 0;
#X connect 10 0 12 0;
#X connect 11 0 10 0;
#X connect 11 1 0 0;
#X connect 11 2 26 0;
#X connect 11 3 24 0;
#X connect 12 0 15 0;
#X connect 13 0 27 1;
#X connect 13 1 16 1;
#X connect 14 0 9 0;
#X connect 15 0 8 0;
#X connect 15 1 14 0;
#X connect 16 0 18 0;
#X connect 17 0 14 1;
#X connect 17 0 8 1;
#X connect 17 1 16 0;
#X connect 18 0 12 1;
#X connect 19 0 20 0;
#X connect 20 0 12 1;
#X connect 21 0 14 1;
#X connect 22 0 10 1;
#X connect 23 0 8 1;
#X connect 26 0 7 1;
#X connect 27 0 10 1;
#X connect 27 1 7 0;
#X connect 27 2 17 0;
#X restore 289 199 pd replacelist;
#X obj 423 265 t a;
#X obj 272 130 swap;
#X obj 50 109 inlet;
#N canvas 0 22 545 419 drip2 0;
#X obj 64 123 until;
#X obj 64 181 list append;
#X obj 194 206 bang;
#X text 146 90 First store list \, then start the loop;
#X text 163 118 "until" bangs its output until told to stop by a "bang"
to its right inlet.;
#X text 182 160 Store the remaining list.;
#X text 239 205 third outlet of "split" tells us to stop.;
#X obj 64 243 outlet;
#X obj 64 57 inlet;
#X text 237 44 From list-help.pd;
#X obj 143 243 outlet;
#X obj 64 86 t b a;
#X obj 64 206 list split 2;
#X connect 0 0 1 0;
#X connect 1 0 12 0;
#X connect 2 0 0 1;
#X connect 8 0 11 0;
#X connect 11 0 0 0;
#X connect 11 1 1 1;
#X connect 12 0 7 0;
#X connect 12 1 1 1;
#X connect 12 2 2 0;
#X connect 12 2 10 0;
#X restore 190 285 pd drip2;
#X obj 253 24 inlet;
#X obj 144 355 route 0 1 2 3 4 5 6 7 8 9 10 11 12 13 14 15;
#X obj 144 381 s \$0-ra;
#X obj 156 401 s \$0-rb;
#X obj 167 422 s \$0-rc;
#X obj 179 442 s \$0-rd;
#X obj 194 381 s \$0-re;
#X obj 206 401 s \$0-rf;
#X obj 217 422 s \$0-rg;
#X obj 229 442 s \$0-rh;
#X obj 250 383 s \$0-ri;
#X obj 262 403 s \$0-rj;
#X obj 273 424 s \$0-rk;
#X obj 285 444 s \$0-rl;
#X obj 299 383 s \$0-rm;
#X obj 312 403 s \$0-rn;
#X obj 323 424 s \$0-ro;
#X obj 335 444 s \$0-rp;
#X obj 35 505 r \$0-a;
#X msg 35 530 0 \$1;
#X obj 78 505 r \$0-b;
#X msg 77 529 1 \$1;
#X obj 121 505 r \$0-c;
#X obj 164 505 r \$0-d;
#X msg 121 530 2 \$1;
#X msg 163 529 3 \$1;
#X obj 208 503 r \$0-e;
#X obj 251 503 r \$0-f;
#X obj 294 503 r \$0-g;
#X obj 337 503 r \$0-h;
#X msg 208 528 4 \$1;
#X msg 250 526 5 \$1;
#X msg 294 527 6 \$1;
#X msg 336 527 7 \$1;
#X obj 383 503 r \$0-i;
#X obj 426 502 r \$0-j;
#X obj 468 503 r \$0-k;
#X obj 512 503 r \$0-l;
#X obj 556 501 r \$0-m;
#X obj 599 501 r \$0-o;
#X obj 642 501 r \$0-p;
#X obj 685 501 r \$0-q;
#X msg 383 528 8 \$1;
#X msg 425 527 9 \$1;
#X msg 469 528 10 \$1;
#X msg 511 527 11 \$1;
#X msg 556 526 12 \$1;
#X msg 598 524 13 \$1;
#X msg 641 525 14 \$1;
#X msg 684 525 15 \$1;
#X obj 683 559 s \$0-values;
#X obj 413 202 t a a;
#X obj 412 182 list;
#X obj 257 47 t a b a;
#X obj 294 150 * 2;
#X obj 295 170 + 1;
#X obj 191 253 t a a;
#X connect 0 0 1 0;
#X connect 2 0 1 0;
#X connect 3 0 68 0;
#X connect 4 0 64 1;
#X connect 5 0 13 0;
#X connect 6 0 9 0;
#X connect 7 0 8 0;
#X connect 7 0 3 1;
#X connect 8 0 7 2;
#X connect 9 0 7 0;
#X connect 9 1 66 0;
#X connect 10 0 0 0;
#X connect 11 0 13 0;
#X connect 12 0 65 0;
#X connect 13 0 14 0;
#X connect 13 1 15 0;
#X connect 13 2 16 0;
#X connect 13 3 17 0;
#X connect 13 4 18 0;
#X connect 13 5 19 0;
#X connect 13 6 20 0;
#X connect 13 7 21 0;
#X connect 13 8 22 0;
#X connect 13 9 23 0;
#X connect 13 10 24 0;
#X connect 13 11 25 0;
#X connect 13 12 26 0;
#X connect 13 13 27 0;
#X connect 13 14 28 0;
#X connect 13 15 29 0;
#X connect 30 0 31 0;
#X connect 31 0 62 0;
#X connect 32 0 33 0;
#X connect 33 0 62 0;
#X connect 34 0 36 0;
#X connect 35 0 37 0;
#X connect 36 0 62 0;
#X connect 37 0 62 0;
#X connect 38 0 42 0;
#X connect 39 0 43 0;
#X connect 40 0 44 0;
#X connect 41 0 45 0;
#X connect 42 0 62 0;
#X connect 43 0 62 0;
#X connect 44 0 62 0;
#X connect 45 0 62 0;
#X connect 46 0 54 0;
#X connect 47 0 55 0;
#X connect 48 0 56 0;
#X connect 49 0 57 0;
#X connect 50 0 58 0;
#X connect 51 0 59 0;
#X connect 52 0 60 0;
#X connect 53 0 61 0;
#X connect 54 0 62 0;
#X connect 55 0 62 0;
#X connect 56 0 62 0;
#X connect 57 0 62 0;
#X connect 58 0 62 0;
#X connect 59 0 62 0;
#X connect 60 0 62 0;
#X connect 61 0 62 0;
#X connect 63 0 7 2;
#X connect 63 1 3 1;
#X connect 64 0 63 0;
#X connect 65 0 2 0;
#X connect 65 1 64 0;
#X connect 65 2 4 0;
#X connect 66 0 67 0;
#X connect 67 0 7 1;
#X connect 68 0 11 0;
#X connect 68 1 7 2;
#X restore 463 293 pd list-functions;
#X text 104 180 patch originally made by DOMIEN;
#X obj 89 8 inlet~;
#X obj 89 61 outlet~;
#N canvas 147 22 635 600 workings 0;
#X obj 70 121 inlet~ signal;
#X obj 252 521 outlet~;
#X obj 334 400 r \$0-gain;
#N canvas 0 22 462 312 rh_scalelog 0;
#X obj 20 155 exp;
#X obj 20 107 *;
#X obj 20 130 +;
#X obj 98 87 log;
#X obj 194 84 log;
#X obj 123 123 t b f;
#X obj 123 145 -;
#X obj 20 183 outlet;
#X obj 20 19 inlet;
#X obj 98 23 inlet;
#X obj 194 24 inlet;
#X connect 0 0 7 0;
#X connect 1 0 2 0;
#X connect 2 0 0 0;
#X connect 3 0 2 1;
#X connect 3 0 5 0;
#X connect 4 0 6 0;
#X connect 5 0 6 0;
#X connect 5 1 6 1;
#X connect 6 0 1 1;
#X connect 8 0 1 0;
#X connect 9 0 3 0;
#X connect 10 0 4 0;
#X restore 334 478 pd rh_scalelog;
#X msg 381 454 0.1;
#X msg 427 454 10;
#X obj 254 489 *~;
#X obj 220 315 *~;
#X obj 335 300 line~;
#X obj 221 220 osc~;
#X obj 221 270 abs~;
#X obj 184 167 line~;
#X obj 184 68 r \$0-speed;
#X obj 185 94 expr pow($f1 \, 4);
#X obj 184 125 * 100;
#X obj 335 208 r \$0-depth;
#X obj 334 227 expr pow($f1 \, 4);
#X obj 335 250 * 500;
#X obj 66 253 *~;
#X obj 97 235 line~;
#X obj 91 166 r \$0-feedback;
#X msg 336 277 \$1 5;
#X msg 181 146 \$1 5;
#X msg 94 214 \$1 5;
#X obj 92 192 * 0.975;
#X obj 382 426 r \$0-loadbang;
#X obj 222 389 vd~ \$0-wobbleb;
#X obj 68 309 delwrite~ \$0-wobbleb 500;
#X obj 242 169 r \$0-phase;
#X connect 0 0 27 0;
#X connect 2 0 3 0;
#X connect 3 0 6 1;
#X connect 4 0 3 1;
#X connect 5 0 3 2;
#X connect 6 0 1 0;
#X connect 7 0 26 0;
#X connect 8 0 7 1;
#X connect 9 0 10 0;
#X connect 10 0 7 0;
#X connect 11 0 9 0;
#X connect 12 0 13 0;
#X connect 13 0 14 0;
#X connect 14 0 22 0;
#X connect 15 0 16 0;
#X connect 16 0 17 0;
#X connect 17 0 21 0;
#X connect 18 0 27 0;
#X connect 19 0 18 1;
#X connect 20 0 24 0;
#X connect 21 0 8 0;
#X connect 22 0 11 0;
#X connect 23 0 19 0;
#X connect 24 0 23 0;
#X connect 25 0 4 0;
#X connect 25 0 5 0;
#X connect 26 0 18 0;
#X connect 26 0 6 0;
#X connect 28 0 9 1;
#X restore 90 32 pd workings;
#X obj 907 32 inlet;
#X obj 906 100 s \$0-phase;
#X obj 908 55 route bang;
#X msg 907 80 0;
#X connect 0 0 11 0;
#X connect 3 0 6 0;
#X connect 4 0 7 0;
#X connect 5 0 10 0;
#X connect 6 0 10 1;
#X connect 7 0 10 1;
#X connect 8 0 9 0;
#X connect 10 0 13 0;
#X connect 10 1 14 0;
#X connect 10 2 15 0;
#X connect 10 3 12 0;
#X connect 11 0 1 0;
#X connect 16 0 29 0;
#X connect 17 0 29 1;
#X connect 18 0 19 0;
#X connect 19 0 17 0;
#X connect 19 1 20 0;
#X connect 31 0 33 0;
#X connect 33 0 32 0;
#X connect 34 0 36 0;
#X connect 36 0 37 0;
#X connect 36 1 35 0;
#X connect 37 0 35 0;
#X coords 0 -1 1 1 180 65 1 100 100;
