#N canvas 455 111 723 609 10;
#X obj 101 106 cnv 15 300 90 empty empty empty 20 12 0 14 -233017 -66577
0;
#X obj 195 729 dac~;
#X obj 114 122 lib/smp-play2;
#X msg 312 69 duration 0;
#X obj 116 245 effects;
#X obj 311 215 bng 15 250 50 0 empty empty empty 17 7 0 10 -262144
-1 -1;
#X obj 369 188 inlet control;
#X obj 369 213 route play;
#X text 270 214 RESET:;
#X obj 473 170 inlet reset;
#X obj 158 213 bng 15 250 50 0 empty empty empty 17 7 0 10 -262144
-1 -1;
#X text 117 212 START:;
#X text 343 285 vibrato;
#X text 344 385 bitcrush;
#X text 334 495 pitchshift;
#X text 333 595 reverb;
#X msg 114 81 0;
#X obj 187 51 inlet songname;
#X connect 2 0 4 0;
#X connect 2 1 4 1;
#X connect 3 0 2 2;
#X connect 4 0 1 0;
#X connect 4 1 1 1;
#X connect 5 0 4 3;
#X connect 6 0 7 0;
#X connect 7 1 4 2;
#X connect 9 0 5 0;
#X connect 16 0 2 0;
#X connect 17 0 16 0;
#X connect 17 0 2 1;
#X coords 0 -1 1 1 302 602 1 100 100;
