#N canvas 0 95 778 557 10;
#X obj 388 92 inlet;
#X obj 440 157 unpack f f f;
#X floatatom 171 47 5 0 0 0 - - -;
#X floatatom 229 46 5 0 0 0 - - -;
#X floatatom 295 46 5 0 0 0 - - -;
#X text 169 30 x;
#X text 229 28 y;
#X text 293 29 z;
#X obj 233 116 pack f f f;
#X floatatom 440 213 5 0 0 0 - - -;
#X floatatom 498 212 5 0 0 0 - - -;
#X floatatom 564 212 5 0 0 0 - - -;
#X text 438 196 x;
#X text 498 194 y;
#X text 562 195 z;
#X obj 223 78 bng 15 250 50 0 empty empty empty 17 7 0 10 -262144 -1
-1;
#X obj 287 223 sig~;
#X obj 245 364 snapshot~;
#X obj 338 223 sig~;
#X obj 391 221 sig~;
#X floatatom 400 244 5 0 0 0 - - -;
#X obj 333 372 snapshot~;
#X obj 451 374 snapshot~;
#X floatatom 282 400 5 0 0 0 - - -;
#X floatatom 352 397 5 0 0 0 - - -;
#X floatatom 470 399 5 0 0 0 - - -;
#X text 476 249 cutoff Frequency;
#X obj 286 285 lop~ 3;
#X obj 343 280 lop~ 3;
#X obj 400 281 lop~ 3;
#X obj 346 518 outlet;
#X obj 338 465 pack f f f;
#X obj 191 296 metro 100;
#X msg 161 251 stop;
#X obj 166 214 delay 1000;
#X connect 0 0 1 0;
#X connect 0 0 32 0;
#X connect 0 0 34 0;
#X connect 1 0 9 0;
#X connect 1 0 16 0;
#X connect 1 1 10 0;
#X connect 1 1 18 0;
#X connect 1 2 11 0;
#X connect 1 2 19 0;
#X connect 2 0 8 0;
#X connect 2 0 15 0;
#X connect 3 0 8 1;
#X connect 3 0 15 0;
#X connect 4 0 8 2;
#X connect 4 0 15 0;
#X connect 8 0 1 0;
#X connect 15 0 8 0;
#X connect 16 0 27 0;
#X connect 17 0 23 0;
#X connect 17 0 31 0;
#X connect 18 0 28 0;
#X connect 19 0 29 0;
#X connect 20 0 27 1;
#X connect 20 0 28 1;
#X connect 20 0 29 1;
#X connect 21 0 24 0;
#X connect 21 0 31 1;
#X connect 22 0 25 0;
#X connect 22 0 31 2;
#X connect 27 0 17 0;
#X connect 28 0 21 0;
#X connect 29 0 22 0;
#X connect 31 0 30 0;
#X connect 32 0 17 0;
#X connect 32 0 21 0;
#X connect 32 0 22 0;
#X connect 33 0 32 0;
#X connect 34 0 33 0;
