#N canvas 0 22 1421 841 10;
#X floatatom -243 86 5 0 0 0 - - -;
#X text -306 84 # Clients:;
#X obj -330 66 netreceive 8888;
#X obj 101 105 cnv 15 600 190 empty empty Config 20 12 0 14 -262130
-66577 0;
#X obj 659 120 vradio 15 1 0 3 empty empty empty 0 -8 0 10 -262144
-1 -1 0;
#X text 644 134 I;
#X text 644 149 M;
#X text 644 119 N;
#X obj 679 120 vradio 15 1 0 3 empty empty empty 0 -8 0 10 -262144
-1 -1 0;
#X text 682 103 R;
#X text 662 103 L;
#X obj 679 56 inlet button_right;
#X obj 659 35 inlet button_left;
#X obj -330 111 route STATE LOAD;
#X obj -237 133 print config;
#X obj -330 178 s set_state;
#X obj -284 155 s load_file;
#X obj 39 436 r set_state;
#X obj -39 155 r ACC_L_X;
#X obj -39 183 r ACC_L_Y;
#X obj -39 211 r ACC_L_Z;
#X obj 31 145 r ACC_R_X;
#X obj 31 173 r ACC_R_Y;
#X obj 31 201 r ACC_R_Z;
#X text 391 363 STATE 0 1 ACC R X EFFECT;
#X text 391 385 STATE 1 1 ENTER PLAY <SOUNDCLIP NAME>;
#X text 393 408 STATE 1 1 ENTER SYNTH MIDI_NOTE;
#X obj 39 470 route 0 1 2;
#X obj 658 335 pack f f;
#X obj 668 309 bang;
#X msg 658 382 \; \$1 bang;
#X msg 658 360 symbol \$1-\$2;
#X obj 245 74 r ENTER;
#X obj 200 73 r EXIT;
#X obj -500 526 route 2 1 0;
#X obj 200 526 route 2 1 0;
#X obj 950 526 route 2 1 0;
#X obj 1603 584 r 2-0;
#X obj 1603 904 r 2-1;
#X obj 1603 1210 r 2-2;
#X msg -148 353 0 1 ACC R X Bangfoo;
#X obj 111 331 outlet ACC_L_X;
#X obj 118 375 outlet ACC_L_Y;
#X obj 128 417 outlet ACC_L_Z;
#X obj 228 331 outlet ACC_R_X;
#X obj 238 370 outlet ACC_R_Y;
#X obj 248 411 outlet ACC_R_Z;
#X text 734 261 TODO: Must modify to detect exit case;
#X obj 340 325 outlet ENTER;
#X obj 426 325 outlet EXIT;
#X obj 1036 842 s ACC_L_X;
#X obj 1104 842 s ACC_L_Y;
#X obj 1175 842 s ACC_L_Z;
#X obj 1456 841 s ENTER;
#X obj 1516 840 s EXIT;
#X obj 1246 842 s ACC_R_X;
#X obj 1314 842 s ACC_R_Y;
#X obj 1385 842 s ACC_R_Z;
#X obj 1016 1162 s ACC_L_X;
#X obj 1084 1162 s ACC_L_Y;
#X obj 1155 1162 s ACC_L_Z;
#X obj 1436 1161 s ENTER;
#X obj 1496 1160 s EXIT;
#X obj 1226 1162 s ACC_R_X;
#X obj 1294 1162 s ACC_R_Y;
#X obj 1365 1162 s ACC_R_Z;
#X obj 1016 1472 s ACC_L_X;
#X obj 1084 1472 s ACC_L_Y;
#X obj 1155 1472 s ACC_L_Z;
#X obj 1436 1471 s ENTER;
#X obj 1496 1470 s EXIT;
#X obj 1226 1472 s ACC_R_X;
#X obj 1294 1472 s ACC_R_Y;
#X obj 1365 1472 s ACC_R_Z;
#X obj 286 842 s ACC_L_X;
#X obj 354 842 s ACC_L_Y;
#X obj 425 842 s ACC_L_Z;
#X obj 706 841 s ENTER;
#X obj 766 840 s EXIT;
#X obj 496 842 s ACC_R_X;
#X obj 564 842 s ACC_R_Y;
#X obj 635 842 s ACC_R_Z;
#X obj 266 1162 s ACC_L_X;
#X obj 334 1162 s ACC_L_Y;
#X obj 405 1162 s ACC_L_Z;
#X obj 686 1161 s ENTER;
#X obj 746 1160 s EXIT;
#X obj 476 1162 s ACC_R_X;
#X obj 544 1162 s ACC_R_Y;
#X obj 615 1162 s ACC_R_Z;
#X obj 266 1472 s ACC_L_X;
#X obj 334 1472 s ACC_L_Y;
#X obj 405 1472 s ACC_L_Z;
#X obj 686 1471 s ENTER;
#X obj 746 1470 s EXIT;
#X obj 476 1472 s ACC_R_X;
#X obj 544 1472 s ACC_R_Y;
#X obj 615 1472 s ACC_R_Z;
#X obj -442 610 state_store;
#X obj -434 842 s ACC_L_X;
#X obj -366 842 s ACC_L_Y;
#X obj -295 842 s ACC_L_Z;
#X obj -14 841 s ENTER;
#X obj 46 840 s EXIT;
#X obj -224 842 s ACC_R_X;
#X obj -156 842 s ACC_R_Y;
#X obj -85 842 s ACC_R_Z;
#X obj -454 1162 s ACC_L_X;
#X obj -386 1162 s ACC_L_Y;
#X obj -315 1162 s ACC_L_Z;
#X obj -34 1161 s ENTER;
#X obj 26 1160 s EXIT;
#X obj -244 1162 s ACC_R_X;
#X obj -176 1162 s ACC_R_Y;
#X obj -105 1162 s ACC_R_Z;
#X obj -454 1472 s ACC_L_X;
#X obj -386 1472 s ACC_L_Y;
#X obj -315 1472 s ACC_L_Z;
#X obj -34 1471 s ENTER;
#X obj 26 1470 s EXIT;
#X obj -244 1472 s ACC_R_X;
#X obj -176 1472 s ACC_R_Y;
#X obj -105 1472 s ACC_R_Z;
#X obj 153 584 r 0-0;
#X obj 153 904 r 0-1;
#X obj 153 1210 r 0-2;
#X obj 853 584 r 1-0;
#X obj 853 904 r 1-1;
#X obj 853 1210 r 1-2;
#X obj -412 64 inlet input;
#X text -152 41 TODO: Load file from interface;
#X msg -289 325 0 0 ACC L X Foobar bing bang;
#X msg -297 398 0 0 ACC L X Foobar hello world;
#X text 142 159 Accelerometers;
#X text 124 172 Left;
#X text 314 172 Right;
#X text 242 102 Enter State;
#X text 242 138 Exit State;
#X symbolatom 115 190 25 0 0 0 X - -;
#X symbolatom 115 216 25 0 0 0 Y - -;
#X symbolatom 115 242 25 0 0 0 Z - -;
#X symbolatom 315 190 25 0 0 0 X - -;
#X symbolatom 315 216 25 0 0 0 Y - -;
#X symbolatom 315 242 25 0 0 0 Z - -;
#X symbolatom 244 119 60 0 0 0 - - -;
#X symbolatom 243 155 60 0 0 0 - - -;
#X obj 111 310 unsymbol;
#X obj 118 354 unsymbol;
#X obj 128 397 unsymbol;
#X obj 228 310 unsymbol;
#X obj 238 350 unsymbol;
#X obj 248 390 unsymbol;
#X obj 426 304 unsymbol;
#X obj 340 304 unsymbol;
#X symbolatom 113 275 80 0 0 2 Song - -;
#X obj 1008 610 state_store;
#X obj 1008 930 state_store;
#X obj 1008 1240 state_store;
#X obj 258 610 state_store;
#X obj 258 930 state_store;
#X obj 258 1240 state_store;
#X obj -442 930 state_store;
#X obj -442 1240 state_store;
#X obj 96 840 s FLEX_L;
#X obj 157 840 s FLEX_R;
#X obj 816 840 s FLEX_L;
#X obj 877 840 s FLEX_R;
#X obj 1566 840 s FLEX_L;
#X obj 1627 840 s FLEX_R;
#X obj 76 1160 s FLEX_L;
#X obj 137 1160 s FLEX_R;
#X obj 796 1160 s FLEX_L;
#X obj 857 1160 s FLEX_R;
#X obj 1546 1160 s FLEX_L;
#X obj 1607 1160 s FLEX_R;
#X obj 76 1470 s FLEX_L;
#X obj 137 1470 s FLEX_R;
#X obj 796 1470 s FLEX_L;
#X obj 857 1470 s FLEX_R;
#X obj 1546 1470 s FLEX_L;
#X obj 1607 1470 s FLEX_R;
#X msg -458 11 STATE 0 1 ACC L X bitcrush;
#X msg -434 31 STATE 2 0 ACC L X bitcrush;
#X obj 1011 58 r load_file;
#X obj 1011 100 l2s;
#X obj 1011 79 list;
#X obj 579 464 outlet SONG_NAME;
#X obj 1011 124 s SONG_NAME;
#X obj 17 249 r SONG_NAME;
#X obj 579 441 unsymbol;
#X obj 952 80 loadbang;
#X obj 952 100 symbol;
#X connect 2 0 13 0;
#X connect 2 1 0 0;
#X connect 4 0 28 0;
#X connect 8 0 28 1;
#X connect 8 0 29 0;
#X connect 11 0 8 0;
#X connect 12 0 4 0;
#X connect 13 0 15 0;
#X connect 13 1 16 0;
#X connect 13 2 14 0;
#X connect 17 0 27 0;
#X connect 18 0 138 0;
#X connect 19 0 139 0;
#X connect 20 0 140 0;
#X connect 21 0 141 0;
#X connect 22 0 142 0;
#X connect 23 0 143 0;
#X connect 27 0 34 0;
#X connect 27 1 35 0;
#X connect 27 2 36 0;
#X connect 28 0 31 0;
#X connect 29 0 28 0;
#X connect 31 0 30 0;
#X connect 32 0 144 0;
#X connect 33 0 145 0;
#X connect 34 0 162 0;
#X connect 34 1 161 0;
#X connect 34 2 98 0;
#X connect 35 0 160 0;
#X connect 35 1 159 0;
#X connect 35 2 158 0;
#X connect 36 0 157 0;
#X connect 36 1 156 0;
#X connect 36 2 155 0;
#X connect 37 0 155 1;
#X connect 38 0 156 1;
#X connect 39 0 157 1;
#X connect 40 0 27 0;
#X connect 98 0 99 0;
#X connect 98 1 100 0;
#X connect 98 2 101 0;
#X connect 98 3 104 0;
#X connect 98 4 105 0;
#X connect 98 5 106 0;
#X connect 98 6 102 0;
#X connect 98 7 103 0;
#X connect 98 8 163 0;
#X connect 98 9 164 0;
#X connect 123 0 98 1;
#X connect 124 0 161 1;
#X connect 125 0 162 1;
#X connect 126 0 158 1;
#X connect 127 0 159 1;
#X connect 128 0 160 1;
#X connect 129 0 13 0;
#X connect 131 0 27 0;
#X connect 132 0 27 0;
#X connect 138 0 146 0;
#X connect 139 0 147 0;
#X connect 140 0 148 0;
#X connect 141 0 149 0;
#X connect 142 0 150 0;
#X connect 143 0 151 0;
#X connect 144 0 153 0;
#X connect 145 0 152 0;
#X connect 146 0 41 0;
#X connect 147 0 42 0;
#X connect 148 0 43 0;
#X connect 149 0 44 0;
#X connect 150 0 45 0;
#X connect 151 0 46 0;
#X connect 152 0 49 0;
#X connect 153 0 48 0;
#X connect 154 0 189 0;
#X connect 155 0 50 0;
#X connect 155 1 51 0;
#X connect 155 2 52 0;
#X connect 155 3 55 0;
#X connect 155 4 56 0;
#X connect 155 5 57 0;
#X connect 155 6 53 0;
#X connect 155 7 54 0;
#X connect 155 8 167 0;
#X connect 155 9 168 0;
#X connect 156 0 58 0;
#X connect 156 1 59 0;
#X connect 156 2 60 0;
#X connect 156 3 63 0;
#X connect 156 4 64 0;
#X connect 156 5 65 0;
#X connect 156 6 61 0;
#X connect 156 7 62 0;
#X connect 156 8 173 0;
#X connect 156 9 174 0;
#X connect 157 0 66 0;
#X connect 157 1 67 0;
#X connect 157 2 68 0;
#X connect 157 3 71 0;
#X connect 157 4 72 0;
#X connect 157 5 73 0;
#X connect 157 6 69 0;
#X connect 157 7 70 0;
#X connect 157 8 179 0;
#X connect 157 9 180 0;
#X connect 158 0 74 0;
#X connect 158 1 75 0;
#X connect 158 2 76 0;
#X connect 158 3 79 0;
#X connect 158 4 80 0;
#X connect 158 5 81 0;
#X connect 158 6 77 0;
#X connect 158 7 78 0;
#X connect 158 8 165 0;
#X connect 158 9 166 0;
#X connect 159 0 82 0;
#X connect 159 1 83 0;
#X connect 159 2 84 0;
#X connect 159 3 87 0;
#X connect 159 4 88 0;
#X connect 159 5 89 0;
#X connect 159 6 85 0;
#X connect 159 7 86 0;
#X connect 159 8 171 0;
#X connect 159 9 172 0;
#X connect 160 0 90 0;
#X connect 160 1 91 0;
#X connect 160 2 92 0;
#X connect 160 3 95 0;
#X connect 160 4 96 0;
#X connect 160 5 97 0;
#X connect 160 6 93 0;
#X connect 160 7 94 0;
#X connect 160 8 177 0;
#X connect 160 9 178 0;
#X connect 161 0 107 0;
#X connect 161 1 108 0;
#X connect 161 2 109 0;
#X connect 161 3 112 0;
#X connect 161 4 113 0;
#X connect 161 5 114 0;
#X connect 161 6 110 0;
#X connect 161 7 111 0;
#X connect 161 8 169 0;
#X connect 161 9 170 0;
#X connect 162 0 115 0;
#X connect 162 1 116 0;
#X connect 162 2 117 0;
#X connect 162 3 120 0;
#X connect 162 4 121 0;
#X connect 162 5 122 0;
#X connect 162 6 118 0;
#X connect 162 7 119 0;
#X connect 162 8 175 0;
#X connect 162 9 176 0;
#X connect 181 0 13 0;
#X connect 182 0 13 0;
#X connect 183 0 185 0;
#X connect 184 0 187 0;
#X connect 185 0 184 0;
#X connect 188 0 154 0;
#X connect 189 0 186 0;
#X connect 190 0 191 0;
#X connect 191 0 187 0;
#X coords 0 -1 1 1 602 200 1 100 100;
