#N canvas 4 22 1436 752 10;
#X obj 513 436 lib/st-bitcrusher;
#X obj 511 536 lib/st-pitchshifter;
#X obj 513 626 lib/st-FFTreverb;
#X obj -28 82 inlet~;
#X obj 23 82 inlet~;
#X obj 513 338 lib/st-vibrato;
#X obj 434 183 s \$0-vibrato;
#X obj 493 163 s \$0-bitcrush;
#X obj 552 143 s \$0-pitchshift;
#X obj 611 123 s \$0-reverb;
#X obj -28 406 spigot~;
#X obj 23 406 spigot~;
#X msg 307 401 0;
#X obj 307 349 r \$0-reset;
#X msg 342 401 1;
#X obj 397 346 r \$0-bitcrush;
#X obj -28 506 spigot~;
#X obj 23 506 spigot~;
#X msg 307 522 0;
#X obj 307 469 r \$0-reset;
#X msg 374 520 1;
#X obj 387 449 r \$0-pitchshift;
#X obj -28 616 spigot~;
#X obj 23 616 spigot~;
#X msg 307 632 0;
#X obj 307 579 r \$0-reset;
#X msg 374 631 1;
#X obj -28 811 outlet~;
#X obj 23 811 outlet~;
#X obj 388 547 r \$0-reverb;
#X obj 512 319 tgl 15 0 empty empty empty 17 7 0 10 -262144 -1 -1 0
1;
#X obj 512 419 tgl 15 0 empty empty empty 17 7 0 10 -262144 -1 -1 0
1;
#X obj -28 326 spigot~;
#X obj 23 326 spigot~;
#X msg 307 282 0;
#X obj 307 229 r \$0-reset;
#X msg 342 283 1;
#X obj 387 226 r \$0-vibrato;
#X obj 512 519 tgl 15 0 empty empty empty 17 7 0 10 -262144 -1 -1 0
1;
#X obj 512 609 tgl 15 0 empty empty empty 17 7 0 10 -262144 -1 -1 0
1;
#X obj 434 30 inlet control;
#X obj 719 82 inlet reset;
#X obj 719 106 s \$0-reset;
#X obj 434 52 list trim;
#X obj 318 255 select 0;
#X obj 317 375 select 0;
#X obj 317 495 select 0;
#X obj 317 605 select 0;
#X obj 387 247 route add mult;
#X obj 397 367 route add mult;
#X obj 387 471 route add mult;
#X obj 388 568 route add mult;
#X obj 434 103 route vibrato bitcrush pitchshift reverb;
#X connect 0 0 16 0;
#X connect 0 1 17 0;
#X connect 1 0 22 0;
#X connect 1 1 23 0;
#X connect 2 0 27 0;
#X connect 2 1 28 0;
#X connect 3 0 32 0;
#X connect 4 0 33 0;
#X connect 5 0 10 0;
#X connect 5 1 11 0;
#X connect 10 0 16 0;
#X connect 10 1 0 0;
#X connect 11 0 17 0;
#X connect 11 1 0 1;
#X connect 12 0 31 0;
#X connect 13 0 12 0;
#X connect 14 0 31 0;
#X connect 15 0 49 0;
#X connect 16 0 22 0;
#X connect 16 1 1 0;
#X connect 17 0 23 0;
#X connect 17 1 1 1;
#X connect 18 0 38 0;
#X connect 19 0 18 0;
#X connect 20 0 38 0;
#X connect 21 0 50 0;
#X connect 22 0 27 0;
#X connect 22 1 2 0;
#X connect 23 0 28 0;
#X connect 23 1 2 1;
#X connect 24 0 39 0;
#X connect 25 0 24 0;
#X connect 26 0 39 0;
#X connect 29 0 51 0;
#X connect 30 0 33 1;
#X connect 30 0 32 1;
#X connect 31 0 11 1;
#X connect 31 0 10 1;
#X connect 32 0 10 0;
#X connect 32 1 5 0;
#X connect 33 0 11 0;
#X connect 33 1 5 1;
#X connect 34 0 30 0;
#X connect 35 0 34 0;
#X connect 36 0 30 0;
#X connect 37 0 48 0;
#X connect 38 0 16 1;
#X connect 38 0 17 1;
#X connect 39 0 22 1;
#X connect 39 0 23 1;
#X connect 40 0 43 0;
#X connect 41 0 42 0;
#X connect 43 0 52 0;
#X connect 44 0 34 0;
#X connect 44 1 36 0;
#X connect 45 0 12 0;
#X connect 45 1 14 0;
#X connect 46 0 18 0;
#X connect 46 1 20 0;
#X connect 47 0 24 0;
#X connect 47 1 26 0;
#X connect 48 0 5 3;
#X connect 48 1 5 4;
#X connect 48 2 44 0;
#X connect 48 2 5 2;
#X connect 49 0 0 3;
#X connect 49 1 0 4;
#X connect 49 2 0 2;
#X connect 49 2 45 0;
#X connect 50 0 1 3;
#X connect 50 1 1 4;
#X connect 50 2 1 2;
#X connect 50 2 46 0;
#X connect 51 0 2 3;
#X connect 51 1 2 4;
#X connect 51 2 47 0;
#X connect 51 2 2 2;
#X connect 52 0 6 0;
#X connect 52 1 7 0;
#X connect 52 2 8 0;
#X connect 52 3 9 0;
#X coords 0 -1 1 1 202 450 1 500 300;
