#N canvas 803 154 450 300 10;
#X obj 158 101 sig~;
#X floatatom 168 124 5 0 0 0 - - -;
#X obj 158 40 inlet;
#X obj 158 68 float;
#X obj 203 130 inlet cutoff;
#X obj 157 193 snapshot~;
#X floatatom 229 47 5 0 0 0 - - -;
#X floatatom 157 236 5 0 0 0 - - -;
#X obj 206 47 bng 15 250 50 0 empty empty empty 17 7 0 10 -262144 -1
-1;
#X obj 157 215 int;
#X obj 157 258 outlet;
#X floatatom 217 75 5 0 0 0 - - -;
#X obj 158 158 lop~ 2;
#X obj 81 155 metro 200;
#X obj 54 95 delay 1000;
#X msg 54 120 stop;
#X connect 0 0 12 0;
#X connect 1 0 12 1;
#X connect 2 0 3 0;
#X connect 2 0 14 0;
#X connect 3 0 0 0;
#X connect 3 0 13 0;
#X connect 4 0 12 1;
#X connect 5 0 9 0;
#X connect 6 0 3 1;
#X connect 7 0 10 0;
#X connect 8 0 3 0;
#X connect 9 0 7 0;
#X connect 11 0 0 0;
#X connect 12 0 5 0;
#X connect 13 0 5 0;
#X connect 14 0 15 0;
#X connect 15 0 13 0;
