#N canvas 298 22 1234 819 10;
#X floatatom 296 -75 5 0 0 0 - - -;
#X floatatom 334 -76 5 0 0 0 - - -;
#X floatatom 370 -76 5 0 0 0 - - -;
#X text 294 -92 x;
#X text 334 -94 y;
#X text 368 -93 z;
#X obj 296 -41 pack f f f;
#X obj 328 -58 bng 15 250 50 0 empty empty empty 17 7 0 10 -262144
-1 -1;
#X obj 49 54 suit;
#X obj 539 343 config;
#X msg 27 -69 BTN R 1;
#X msg 46 -35 BTN R 10;
#X msg 94 -63 BTN L 1;
#X msg 113 -29 BTN L 10;
#X msg 529 317 STATE 0 0 ACC L X bitcrush;
#X text 185 375 TODO: route the accelerometer value to the ouput block
;
#X obj 111 600 print config_X_OUT;
#X msg 115 553 hello-\$1;
#X msg 119 506 symbol boo;
#X connect 0 0 6 0;
#X connect 0 0 7 0;
#X connect 1 0 6 1;
#X connect 1 0 7 0;
#X connect 2 0 6 2;
#X connect 2 0 7 0;
#X connect 7 0 6 0;
#X connect 8 8 9 1;
#X connect 8 9 9 2;
#X connect 10 0 8 0;
#X connect 11 0 8 0;
#X connect 12 0 8 0;
#X connect 13 0 8 0;
#X connect 14 0 9 0;
#X connect 17 0 16 0;
#X connect 18 0 17 0;
