#N canvas 1 22 996 797 10;
#X obj -261 44 suit;
#X obj 839 43 config;
#X msg -263 -69 BTN R 1;
#X msg -244 -35 BTN R 10;
#X msg -196 -63 BTN L 1;
#X msg -177 -29 BTN L 10;
#X msg 839 437 STATE 0 0 ACC L X bitcrush 0;
#X obj -240 624 r ACCEL_L_X;
#X obj 267 273 s \$0_left_hand;
#X obj 1136 17 r \$0_left_hand;
#X obj 334 253 s \$0_right_hand;
#X obj 1434 18 r \$0_right_hand;
#X obj -262 626 bng 15 250 50 0 empty empty empty 17 7 0 10 -262144
-1 -1;
#X obj -261 671 list;
#X obj -261 719 list;
#X obj -261 744 s output_ctl;
#X obj 570 22 r output_ctl;
#X obj -415 901 print;
#X obj -261 595 / 100;
#X obj 839 279 s ACCEL_L_X;
#X obj 839 258 s2l;
#X obj 913 258 s2l;
#X obj 987 257 s2l;
#X obj 913 278 s ACCEL_L_Y;
#X obj 987 277 s ACCEL_L_Z;
#X obj 1062 254 s2l;
#X obj 1136 254 s2l;
#X obj 1210 253 s2l;
#X obj 1062 275 s ACCEL_R_X;
#X obj 1136 274 s ACCEL_R_Y;
#X obj 1210 273 s ACCEL_R_Z;
#X obj -196 456 bng 15 250 50 0 empty empty empty 17 7 0 10 -262144
-1 -1;
#X obj -195 501 list;
#X obj -195 549 list;
#X obj -195 574 s output_ctl;
#X obj -195 425 / 100;
#X obj -130 286 bng 15 250 50 0 empty empty empty 17 7 0 10 -262144
-1 -1;
#X obj -129 331 list;
#X obj -129 379 list;
#X obj -129 404 s output_ctl;
#X obj -129 255 / 100;
#X obj -64 636 bng 15 250 50 0 empty empty empty 17 7 0 10 -262144
-1 -1;
#X obj -63 681 list;
#X obj -63 729 list;
#X obj -63 754 s output_ctl;
#X obj -63 605 / 100;
#X obj 2 466 bng 15 250 50 0 empty empty empty 17 7 0 10 -262144 -1
-1;
#X obj 3 511 list;
#X obj 3 559 list;
#X obj 3 584 s output_ctl;
#X obj 3 435 / 100;
#X obj 68 296 bng 15 250 50 0 empty empty empty 17 7 0 10 -262144 -1
-1;
#X obj 69 341 list;
#X obj 69 389 list;
#X obj 69 414 s output_ctl;
#X obj 69 265 / 100;
#X obj -108 284 r ACCEL_L_Z;
#X obj -174 454 r ACCEL_L_Y;
#X obj -42 634 r ACCEL_R_X;
#X msg 287 313 bang;
#X obj 287 340 s output_rst;
#X obj 718 22 r output_rst;
#X obj 839 17 r config_ctl;
#X msg 839 496 \; config_ctl STATE 1 0 ACC L X vibrato 0 \; config_ctl
STATE 1 0 ACC L Y vibrato 1 \; \; config_ctl STATE 2 0 ACC L X pitchshift
0 \; \;;
#X obj 838 467 bng 15 250 50 0 empty empty empty 17 7 0 10 -262144
-1 -1;
#X text 676 236 comment;
#X obj 828 607 bng 15 250 50 0 empty empty empty 17 7 0 10 -262144
-1 -1;
#X obj 423 75 output;
#X obj 1323 252 s2l;
#X obj 1398 255 s2l;
#X obj 1323 272 s FLEX_L;
#X obj 1398 275 s FLEX_R;
#X obj -89 -105 loadbang;
#X msg -89 -80 \; pd dsp 1;
#X obj 24 464 r ACCEL_R_Y;
#X obj 90 294 r ACCEL_R_Z;
#X obj 134 536 bng 15 250 50 0 empty empty empty 17 7 0 10 -262144
-1 -1;
#X obj 135 581 list;
#X obj 135 629 list;
#X obj 135 654 s output_ctl;
#X obj 135 505 / 100;
#X obj 200 366 bng 15 250 50 0 empty empty empty 17 7 0 10 -262144
-1 -1;
#X obj 201 411 list;
#X obj 201 459 list;
#X obj 201 484 s output_ctl;
#X obj 201 335 / 100;
#X obj 156 534 r FLEX_L;
#X obj 222 364 r FLEX_R;
#X obj 1457 261 s SONG_NAME;
#X obj 423 22 r SONG_NAME;
#X obj 990 331 bng 15 250 50 0 empty empty empty 17 7 0 10 -262144
-1 -1;
#X msg 1000 358 symbol /tmp/harlem.wav;
#X msg 829 634 \; config_ctl STATE 1 0 ACC L X vibrato 0 \; config_ctl
STATE 1 0 ACC L Y vibrato 1 \; config_ctl STATE 1 0 ACC L Z vibrato
mult 0 \; config_ctl STATE 1 0 ACC R X vibrato add 0 \; \; config_ctl
STATE 2 0 ACC L X pitchshift 3 \; config_ctl STATE 2 0 \;;
#X obj 1190 341 bng 15 250 50 0 empty empty empty 17 7 0 10 -262144
-1 -1;
#X msg 1200 368 symbol /tmp/athens.wav;
#X obj 1158 457 bng 15 250 50 0 empty empty empty 17 7 0 10 -262144
-1 -1;
#X msg 1159 484 \; config_ctl STATE 1 0 ACC L X vibrato 0 \; config_ctl
STATE 1 0 ACC L Y vibrato 1 \; output_ctl vibrato mult 0 0.5 \; output_ctl
vibrato add 0 0.25 \; output_ctl vibrato mult 1 0.5 \; \; config_ctl
STATE 2 0 ACC L X pitchshift \; config_ctl STATE 2 0 ACC L Y pitchshift
0 \; output_ctl pitchshift mult 0 0.1 \; output_ctl pitchshift add
0 0.5 \;;
#X connect 0 0 18 0;
#X connect 0 1 35 0;
#X connect 0 2 40 0;
#X connect 0 3 45 0;
#X connect 0 4 50 0;
#X connect 0 5 55 0;
#X connect 0 6 80 0;
#X connect 0 7 85 0;
#X connect 0 8 8 0;
#X connect 0 8 59 0;
#X connect 0 9 10 0;
#X connect 0 9 59 0;
#X connect 1 0 20 0;
#X connect 1 1 21 0;
#X connect 1 2 22 0;
#X connect 1 3 25 0;
#X connect 1 4 26 0;
#X connect 1 5 27 0;
#X connect 1 8 68 0;
#X connect 1 9 69 0;
#X connect 1 10 88 0;
#X connect 2 0 0 0;
#X connect 3 0 0 0;
#X connect 4 0 0 0;
#X connect 5 0 0 0;
#X connect 7 0 13 1;
#X connect 9 0 1 1;
#X connect 11 0 1 2;
#X connect 12 0 13 0;
#X connect 13 0 14 0;
#X connect 14 0 15 0;
#X connect 16 0 67 1;
#X connect 18 0 12 0;
#X connect 18 0 14 1;
#X connect 20 0 19 0;
#X connect 21 0 23 0;
#X connect 22 0 24 0;
#X connect 25 0 28 0;
#X connect 26 0 29 0;
#X connect 27 0 30 0;
#X connect 31 0 32 0;
#X connect 32 0 33 0;
#X connect 33 0 34 0;
#X connect 35 0 31 0;
#X connect 35 0 33 1;
#X connect 36 0 37 0;
#X connect 37 0 38 0;
#X connect 38 0 39 0;
#X connect 40 0 36 0;
#X connect 40 0 38 1;
#X connect 41 0 42 0;
#X connect 42 0 43 0;
#X connect 43 0 44 0;
#X connect 45 0 41 0;
#X connect 45 0 43 1;
#X connect 46 0 47 0;
#X connect 47 0 48 0;
#X connect 48 0 49 0;
#X connect 50 0 46 0;
#X connect 50 0 48 1;
#X connect 51 0 52 0;
#X connect 52 0 53 0;
#X connect 53 0 54 0;
#X connect 55 0 51 0;
#X connect 55 0 53 1;
#X connect 56 0 37 1;
#X connect 57 0 32 1;
#X connect 58 0 42 1;
#X connect 59 0 60 0;
#X connect 61 0 67 2;
#X connect 62 0 1 0;
#X connect 64 0 63 0;
#X connect 66 0 92 0;
#X connect 68 0 70 0;
#X connect 69 0 71 0;
#X connect 72 0 73 0;
#X connect 74 0 47 1;
#X connect 75 0 52 1;
#X connect 76 0 77 0;
#X connect 77 0 78 0;
#X connect 78 0 79 0;
#X connect 80 0 76 0;
#X connect 80 0 78 1;
#X connect 81 0 82 0;
#X connect 82 0 83 0;
#X connect 83 0 84 0;
#X connect 85 0 81 0;
#X connect 85 0 83 1;
#X connect 86 0 77 1;
#X connect 87 0 82 1;
#X connect 89 0 67 0;
#X connect 90 0 91 0;
#X connect 91 0 88 0;
#X connect 93 0 94 0;
#X connect 94 0 88 0;
#X connect 95 0 96 0;
