#N canvas 89 22 1234 819 10;
#X floatatom 296 -75 5 0 0 0 - - -;
#X floatatom 334 -76 5 0 0 0 - - -;
#X floatatom 370 -76 5 0 0 0 - - -;
#X text 294 -92 x;
#X text 334 -94 y;
#X text 368 -93 z;
#X obj 296 -41 pack f f f;
#X obj 328 -58 bng 15 250 50 0 empty empty empty 17 7 0 10 -262144
-1 -1;
#X obj 49 54 suit;
#X obj 559 293 config;
#X msg 27 -69 BTN R 1;
#X msg 46 -35 BTN R 10;
#X msg 94 -63 BTN L 1;
#X msg 113 -29 BTN L 10;
#X obj 122 513 r Hello;
#X obj 195 510 r Bye;
#X obj 110 567 print Hello;
#X obj 195 566 print Bye;
#X obj 297 516 r 0;
#X obj 301 556 print 0;
#X obj 106 361 symbol;
#X obj 106 326 r ACC_R_X;
#X msg 719 197 STATE 0 0 ACC L X bitcrush;
#X obj 401 686 print bitcrush;
#X obj 403 660 r ACC-bitcrush;
#X msg 67 433 \; ACC-\$2 \$1;
#X obj 66 359 int;
#X obj 74 400 pack 0 s;
#X obj 83 311 bng 15 250 50 0 empty empty empty 17 7 0 10 -262144 -1
-1;
#X obj 432 448 set;
#X connect 0 0 6 0;
#X connect 0 0 7 0;
#X connect 1 0 6 1;
#X connect 1 0 7 0;
#X connect 2 0 6 2;
#X connect 2 0 7 0;
#X connect 7 0 6 0;
#X connect 8 0 26 0;
#X connect 8 6 9 1;
#X connect 8 7 9 2;
#X connect 10 0 8 0;
#X connect 11 0 8 0;
#X connect 12 0 8 0;
#X connect 13 0 8 0;
#X connect 14 0 16 0;
#X connect 15 0 17 0;
#X connect 18 0 19 0;
#X connect 20 0 27 1;
#X connect 21 0 20 0;
#X connect 21 0 17 0;
#X connect 22 0 9 0;
#X connect 24 0 23 0;
#X connect 26 0 27 0;
#X connect 27 0 25 0;
#X connect 27 0 19 0;
#X connect 28 0 20 0;
#X connect 28 0 26 0;
