#N canvas 0 22 1440 804 10;
#X floatatom 296 -75 5 0 0 0 - - -;
#X floatatom 334 -76 5 0 0 0 - - -;
#X floatatom 370 -76 5 0 0 0 - - -;
#X text 294 -92 x;
#X text 334 -94 y;
#X text 368 -93 z;
#X obj 296 -41 pack f f f;
#X obj 328 -58 bng 15 250 50 0 empty empty empty 17 7 0 10 -262144
-1 -1;
#X obj -261 44 suit;
#X obj 839 43 config;
#X msg -263 -69 BTN R 1;
#X msg -244 -35 BTN R 10;
#X msg -196 -63 BTN L 1;
#X msg -177 -29 BTN L 10;
#X msg 839 437 STATE 0 0 ACC L X bitcrush 0;
#X obj -240 624 r ACCEL_L_X;
#X msg 1359 319 \; EXIT_CTL \$1;
#X msg 1449 320 \; LOAD_CTL \$1;
#X obj 267 273 s \$0_left_hand;
#X obj 1136 17 r \$0_left_hand;
#X obj 334 253 s \$0_right_hand;
#X obj 1434 18 r \$0_right_hand;
#X obj -262 626 bng 15 250 50 0 empty empty empty 17 7 0 10 -262144
-1 -1;
#X obj -261 671 list;
#X obj -261 719 list;
#X obj -261 744 s output_ctl;
#X obj 442 22 r output_ctl;
#X obj -415 901 print;
#X obj -261 595 / 100;
#X obj 839 279 s ACCEL_L_X;
#X obj 839 258 s2l;
#X obj 913 258 s2l;
#X obj 987 257 s2l;
#X obj 913 278 s ACCEL_L_Y;
#X obj 987 277 s ACCEL_L_Z;
#X obj 1062 254 s2l;
#X obj 1136 254 s2l;
#X obj 1210 253 s2l;
#X obj 1062 275 s ACCEL_R_X;
#X obj 1136 274 s ACCEL_R_Y;
#X obj 1210 273 s ACCEL_R_Z;
#X obj -196 456 bng 15 250 50 0 empty empty empty 17 7 0 10 -262144
-1 -1;
#X obj -195 501 list;
#X obj -195 549 list;
#X obj -195 574 s output_ctl;
#X obj -195 425 / 100;
#X obj -130 286 bng 15 250 50 0 empty empty empty 17 7 0 10 -262144
-1 -1;
#X obj -129 331 list;
#X obj -129 379 list;
#X obj -129 404 s output_ctl;
#X obj -129 255 / 100;
#X obj -64 636 bng 15 250 50 0 empty empty empty 17 7 0 10 -262144
-1 -1;
#X obj -63 681 list;
#X obj -63 729 list;
#X obj -63 754 s output_ctl;
#X obj -63 605 / 100;
#X obj 2 466 bng 15 250 50 0 empty empty empty 17 7 0 10 -262144 -1
-1;
#X obj 3 511 list;
#X obj 3 559 list;
#X obj 3 584 s output_ctl;
#X obj 3 435 / 100;
#X obj 68 296 bng 15 250 50 0 empty empty empty 17 7 0 10 -262144 -1
-1;
#X obj 69 341 list;
#X obj 69 389 list;
#X obj 69 414 s output_ctl;
#X obj 69 265 / 100;
#X obj -108 284 r ACCEL_L_Z;
#X obj -174 454 r ACCEL_L_Y;
#X obj -42 634 r ACCEL_R_X;
#X msg 287 313 bang;
#X obj 287 340 s output_rst;
#X obj 737 22 r output_rst;
#X obj 839 17 r config_ctl;
#X msg 839 496 \; config_ctl STATE 1 0 ACC L X vibrato 0 \; config_ctl
STATE 1 0 ACC L Y vibrato 1 \; \; config_ctl STATE 2 0 ACC L X pitchshift
0 \; \;;
#X obj 838 467 bng 15 250 50 0 empty empty empty 17 7 0 10 -262144
-1 -1;
#X text 676 236 comment;
#X obj 828 607 bng 15 250 50 0 empty empty empty 17 7 0 10 -262144
-1 -1;
#X obj 423 75 output;
#X msg 829 636 \; config_ctl STATE 1 0 ACC L X vibrato 0 \; config_ctl
STATE 1 0 ACC L Y vibrato 1 \; \; config_ctl STATE 2 0 ACC L X pitchshift
3 \; config_ctr STATE 2 0 \;;
#X obj 1362 252 s2l;
#X obj 1438 255 s2l;
#X obj 1362 272 s FLEX_L;
#X obj 1438 275 s FLEX_R;
#X obj 24 464 r FLEX_L;
#X obj 90 294 r FLEX_R;
#X connect 0 0 6 0;
#X connect 0 0 7 0;
#X connect 1 0 6 1;
#X connect 1 0 7 0;
#X connect 2 0 6 2;
#X connect 2 0 7 0;
#X connect 7 0 6 0;
#X connect 8 0 28 0;
#X connect 8 1 45 0;
#X connect 8 2 50 0;
#X connect 8 3 55 0;
#X connect 8 4 60 0;
#X connect 8 5 65 0;
#X connect 8 8 18 0;
#X connect 8 8 69 0;
#X connect 8 9 20 0;
#X connect 8 9 69 0;
#X connect 9 0 30 0;
#X connect 9 1 31 0;
#X connect 9 2 32 0;
#X connect 9 3 35 0;
#X connect 9 4 36 0;
#X connect 9 5 37 0;
#X connect 9 7 79 0;
#X connect 9 8 80 0;
#X connect 10 0 8 0;
#X connect 11 0 8 0;
#X connect 12 0 8 0;
#X connect 13 0 8 0;
#X connect 15 0 23 1;
#X connect 19 0 9 1;
#X connect 21 0 9 2;
#X connect 22 0 23 0;
#X connect 23 0 24 0;
#X connect 24 0 25 0;
#X connect 26 0 77 0;
#X connect 28 0 22 0;
#X connect 28 0 24 1;
#X connect 30 0 29 0;
#X connect 31 0 33 0;
#X connect 32 0 34 0;
#X connect 35 0 38 0;
#X connect 36 0 39 0;
#X connect 37 0 40 0;
#X connect 41 0 42 0;
#X connect 42 0 43 0;
#X connect 43 0 44 0;
#X connect 45 0 41 0;
#X connect 45 0 43 1;
#X connect 46 0 47 0;
#X connect 47 0 48 0;
#X connect 48 0 49 0;
#X connect 50 0 46 0;
#X connect 50 0 48 1;
#X connect 51 0 52 0;
#X connect 52 0 53 0;
#X connect 53 0 54 0;
#X connect 55 0 51 0;
#X connect 55 0 53 1;
#X connect 56 0 57 0;
#X connect 57 0 58 0;
#X connect 58 0 59 0;
#X connect 60 0 56 0;
#X connect 60 0 58 1;
#X connect 61 0 62 0;
#X connect 62 0 63 0;
#X connect 63 0 64 0;
#X connect 65 0 61 0;
#X connect 65 0 63 1;
#X connect 66 0 47 1;
#X connect 67 0 42 1;
#X connect 68 0 52 1;
#X connect 69 0 70 0;
#X connect 71 0 77 1;
#X connect 72 0 9 0;
#X connect 74 0 73 0;
#X connect 76 0 78 0;
#X connect 79 0 81 0;
#X connect 80 0 82 0;
#X connect 83 0 57 1;
#X connect 84 0 62 1;
