#N canvas 89 22 1234 819 10;
#X floatatom 296 -75 5 0 0 0 - - -;
#X floatatom 334 -76 5 0 0 0 - - -;
#X floatatom 370 -76 5 0 0 0 - - -;
#X text 294 -92 x;
#X text 334 -94 y;
#X text 368 -93 z;
#X obj 296 -41 pack f f f;
#X obj 328 -58 bng 15 250 50 0 empty empty empty 17 7 0 10 -262144
-1 -1;
#X obj 49 54 suit;
#X obj 539 343 config;
#X msg 27 -69 BTN R 1;
#X msg 46 -35 BTN R 10;
#X msg 94 -63 BTN L 1;
#X msg 113 -29 BTN L 10;
#X msg 529 317 STATE 0 0 ACC L X bitcrush;
#X text 185 375 TODO: route the accelerometer value to the ouput block
;
#X msg 51 315 \; \$0-\$1 hello;
#X obj 512 563 print;
#X text 678 579 Accelerometers;
#X text 570 592 Left;
#X text 860 592 Right;
#X text 547 608 X;
#X text 547 634 Y;
#X text 547 662 Z;
#X msg 564 634;
#X msg 564 661;
#X msg 564 609;
#X msg 856 634;
#X msg 856 661;
#X msg 856 609;
#X connect 0 0 6 0;
#X connect 0 0 7 0;
#X connect 1 0 6 1;
#X connect 1 0 7 0;
#X connect 2 0 6 2;
#X connect 2 0 7 0;
#X connect 7 0 6 0;
#X connect 8 6 9 1;
#X connect 8 7 9 2;
#X connect 9 0 17 0;
#X connect 9 0 26 0;
#X connect 9 1 24 0;
#X connect 9 2 25 0;
#X connect 9 3 29 0;
#X connect 9 4 27 0;
#X connect 9 5 28 0;
#X connect 10 0 8 0;
#X connect 11 0 8 0;
#X connect 12 0 8 0;
#X connect 13 0 8 0;
#X connect 14 0 9 0;
