#N canvas 70 22 1355 757 10;
#X obj 8 -85 netreceive 8080;
#X floatatom 95 -55 5 0 0 0 - - -;
#X obj 8 -32 print tcp;
#X text 147 37 comment;
#X text 32 -57 # Clients:;
#X obj 93 25 print Unknown;
#X obj -146 25 s button;
#X obj -251 129 r button;
#X obj -87 25 s accelerometer;
#X obj 16 25 s gyroscope;
#X obj 266 -43 r gyroscope;
#X text -121 -88 Network interface:;
#X obj 304 292 r accelerometer;
#X obj 266 -10 print gyroscope;
#N canvas 158 22 781 654 16x 0;
#X obj 69 345 *~ 0.064;
#X obj 69 368 rpole~ 0.93538;
#X obj 69 391 *~ 0.00431;
#X obj 69 414 cpole~ 0.96559 0.05592;
#X obj 69 440 cpole~ 0.96559 -0.05592;
#X obj 69 463 *~ 0.125;
#X obj 69 486 rzero~ -1;
#X obj 69 509 rzero~ -1;
#X obj 69 532 rzero~ -1;
#X obj 63 97 phasor~;
#X obj 69 566 outlet~;
#X obj 86 151 wrap~;
#X obj 86 127 -~;
#X obj 86 175 *~;
#X obj 63 204 +~;
#X obj 271 156 phasor~;
#X obj 294 210 wrap~;
#X obj 294 186 -~;
#X obj 294 234 *~;
#X obj 271 263 +~;
#X obj 64 271 +~;
#X obj 457 31 block~ 1024 1 16;
#X obj 62 29 inlet;
#X obj 250 34 r osc-params;
#X obj 250 57 unpack 0 0 0 0 0 0;
#X obj 272 100 *~;
#X obj 272 128 +~;
#X msg 341 338 \; osc-params 0.5 -0.5 0.5 0.5 1 0.5;
#X obj 341 312 loadbang;
#X connect 0 0 1 0;
#X connect 1 0 2 0;
#X connect 2 0 3 0;
#X connect 3 0 4 0;
#X connect 3 1 4 1;
#X connect 4 0 5 0;
#X connect 5 0 6 0;
#X connect 6 0 7 0;
#X connect 7 0 8 0;
#X connect 8 0 10 0;
#X connect 9 0 12 0;
#X connect 9 0 14 0;
#X connect 11 0 13 0;
#X connect 12 0 11 0;
#X connect 13 0 14 1;
#X connect 14 0 20 0;
#X connect 15 0 17 0;
#X connect 15 0 19 0;
#X connect 16 0 18 0;
#X connect 17 0 16 0;
#X connect 18 0 19 1;
#X connect 19 0 20 1;
#X connect 20 0 0 0;
#X connect 22 0 9 0;
#X connect 22 0 25 0;
#X connect 23 0 24 0;
#X connect 24 0 12 1;
#X connect 24 1 13 1;
#X connect 24 2 17 1;
#X connect 24 3 18 1;
#X connect 24 4 25 1;
#X connect 24 5 26 1;
#X connect 25 0 26 0;
#X connect 26 0 15 0;
#X connect 28 0 27 0;
#X restore -188 324 pd 16x;
#X obj -195 527 output~;
#X obj -77 296 *~;
#X obj -78 266 +~ 0.2;
#X obj -78 320 *~ 2000;
#X obj -121 385 *~;
#X obj -186 382 *~;
#X obj -188 286 mtof;
#X obj -187 356 vcf~ 3;
#X floatatom -1 276 3 0 0 0 - - -;
#X floatatom -1 321 7 0 0 0 - - -;
#X obj -1 297 mtof;
#X obj -188 256 poly 1 1;
#X obj -207 453 freeverb~;
#X msg 379 432 roomsize \$1;
#X obj 299 328 unpack f f f;
#X obj 268 367 - 210;
#X obj 320 366 - 210;
#X obj 379 364 - 210;
#X obj 386 400 * 0.005;
#X obj 379 465 s reverb;
#X obj -253 409 r reverb;
#X msg 167 289 300 400 300;
#X msg 250 266 250 250 250;
#X obj -19 -8 route BTN ACC GYR;
#X obj -78 241 adsr 1 10 200 100 500;
#X obj -121 360 adsr 2 30 200 100 500;
#X floatatom -203 209 5 0 0 0 - - -;
#X obj -251 156 route 0 1 2;
#X floatatom -160 208 5 0 0 0 - - -;
#X obj 131 63 loadbang;
#X obj 142 228 s reverb;
#X obj 317 401 * 0.05;
#X obj 241 402 * 0.05;
#X msg 234 473 set \$1;
#X obj 234 429 + 55;
#X obj 234 450 int;
#X msg 317 471 set \$1;
#X obj 317 428 + 55;
#X obj 317 448 int;
#X msg -308 90 2;
#X msg -322 59 0;
#X msg -263 210 stop;
#X obj -103 166 loadbang;
#X msg -100 206 1;
#X obj 540 -1 openpanel;
#X obj 534 -47 bng 15 250 50 0 empty empty empty 17 7 0 10 -262144
-1 -1;
#X floatatom 570 -36 5 0 0 0 - - -;
#X obj 528 99 readsf~ 2;
#X msg 201 90 0.85;
#X msg 478 72 start;
#X msg 435 70 stop;
#X msg 538 25 open \$1;
#X msg 621 80 print;
#X obj 537 51 t b a;
#X obj 105 107 vsl 15 80 0 1 0 0 empty empty empty 0 -9 0 10 -262144
-1 -1 0 1;
#X obj 148 111 vsl 15 80 0 1 0 0 empty empty empty 0 -9 0 10 -262144
-1 -1 0 1;
#X obj 202 114 vsl 15 80 0 1 0 0 empty empty empty 0 -9 0 10 -262144
-1 -1 0 1;
#X msg 193 203 roomsize \$1;
#X msg 85 201 wet \$1;
#X msg 140 198 dry \$1;
#X msg 139 89 0.85;
#X connect 0 0 2 0;
#X connect 0 0 38 0;
#X connect 0 1 1 0;
#X connect 7 0 42 0;
#X connect 10 0 13 0;
#X connect 12 0 29 0;
#X connect 14 0 22 0;
#X connect 16 0 18 0;
#X connect 17 0 16 0;
#X connect 17 0 16 1;
#X connect 18 0 22 1;
#X connect 19 0 20 1;
#X connect 20 0 27 0;
#X connect 20 0 27 1;
#X connect 21 0 14 0;
#X connect 22 0 20 0;
#X connect 23 0 25 0;
#X connect 24 0 18 1;
#X connect 25 0 24 0;
#X connect 26 1 21 0;
#X connect 26 2 39 0;
#X connect 26 2 40 0;
#X connect 27 0 15 0;
#X connect 27 1 15 1;
#X connect 28 0 34 0;
#X connect 29 0 30 0;
#X connect 29 1 31 0;
#X connect 29 2 32 0;
#X connect 30 0 47 0;
#X connect 31 0 46 0;
#X connect 32 0 33 0;
#X connect 33 0 28 0;
#X connect 35 0 27 0;
#X connect 36 0 29 0;
#X connect 37 0 29 0;
#X connect 38 0 6 0;
#X connect 38 1 8 0;
#X connect 38 2 9 0;
#X connect 38 3 5 0;
#X connect 39 0 17 0;
#X connect 40 0 19 0;
#X connect 40 0 19 1;
#X connect 41 0 26 0;
#X connect 42 0 56 0;
#X connect 42 1 41 0;
#X connect 42 2 43 0;
#X connect 43 0 26 0;
#X connect 44 0 63 0;
#X connect 44 0 75 0;
#X connect 46 0 52 0;
#X connect 47 0 49 0;
#X connect 48 0 41 0;
#X connect 49 0 50 0;
#X connect 50 0 48 0;
#X connect 51 0 43 0;
#X connect 52 0 53 0;
#X connect 53 0 51 0;
#X connect 54 0 42 0;
#X connect 55 0 42 0;
#X connect 56 0 26 0;
#X connect 57 0 58 0;
#X connect 58 0 26 1;
#X connect 59 0 66 0;
#X connect 60 0 59 0;
#X connect 62 0 27 0;
#X connect 62 1 27 1;
#X connect 63 0 71 0;
#X connect 64 0 62 0;
#X connect 65 0 62 0;
#X connect 66 0 68 0;
#X connect 67 0 62 0;
#X connect 68 0 64 0;
#X connect 68 1 62 0;
#X connect 69 0 73 0;
#X connect 70 0 74 0;
#X connect 71 0 72 0;
#X connect 72 0 45 0;
#X connect 74 0 45 0;
#X connect 75 0 70 0;
