#N canvas 555 110 723 609 10;
#X obj 101 106 cnv 15 600 90 empty empty empty 20 12 0 14 -233017 -66577
0;
#X obj 125 498 dac~;
#X obj 112 388 lib/st-bitcrusher;
#X obj 199 328 / 100;
#X floatatom 199 299 5 0 0 0 - - -;
#X obj 323 383 print foo;
#X msg 198 359 gain \$1;
#X connect 3 0 6 0;
#X connect 4 0 3 0;
#X connect 6 0 2 2;
#X connect 6 0 5 0;
#X coords 0 -1 1 1 602 102 1 100 100;
