#N canvas 0 22 895 450 10;
#X obj 140 -91 openpanel;
#X obj 134 -137 bng 15 250 50 0 empty empty empty 17 7 0 10 -262144
-1 -1;
#X floatatom 170 -126 5 0 0 0 - - -;
#X obj 128 9 readsf~ 2;
#X msg 78 -18 start;
#X msg 35 -20 stop;
#X msg 138 -65 open \$1;
#X msg 221 -10 print;
#X obj 137 -39 t b a;
#X connect 0 0 6 0;
#X connect 1 0 0 0;
#X connect 4 0 3 0;
#X connect 5 0 3 0;
#X connect 6 0 8 0;
#X connect 7 0 3 0;
#X connect 8 0 4 0;
#X connect 8 1 3 0;
