#N canvas 186 22 1162 808 10;
#X obj 101 105 cnv 15 600 190 empty empty Store 20 12 0 14 -260097
-66577 0;
#X text 148 169 Accelerometers;
#X text 130 182 Left;
#X text 320 182 Right;
#X obj 156 516 route X Y Z;
#X obj 156 451 route L R;
#X obj 366 516 route X Y Z;
#X text 248 105 Enter State;
#X text 248 141 Exit State;
#X obj 1456 789 symbol;
#X obj 1466 760 symbol;
#X obj 1456 831 s ENTER;
#X obj 1516 789 symbol;
#X obj 1526 760 symbol;
#X obj 1516 830 s EXIT;
#X obj 321 25 r \$0_ACC_R_X;
#X obj 321 53 r \$0_ACC_R_Y;
#X obj 321 81 r \$0_ACC_R_Z;
#X obj 121 25 r \$0_ACC_L_X;
#X obj 121 53 r \$0_ACC_L_Y;
#X obj 121 81 r \$0_ACC_L_Z;
#X obj 156 363 inlet set;
#X obj 250 44 r \$0_ENTER;
#X obj 250 74 r \$0_EXIT;
#X obj 139 662 s \$0_ACC_L_X;
#X obj 209 683 s \$0_ACC_L_Y;
#X obj 279 662 s \$0_ACC_L_Z;
#X obj 366 682 s \$0_ACC_R_X;
#X obj 434 662 s \$0_ACC_R_Y;
#X obj 505 682 s \$0_ACC_R_Z;
#X obj 625 661 s \$0_ENTER;
#X obj 695 680 s \$0_EXIT;
#X obj 374 364 inlet flush;
#X obj 374 393 bang;
#X obj 139 557 list;
#X obj 106 711 outlet ACC_L_X;
#X obj 174 735 outlet ACC_L_Y;
#X obj 245 712 outlet ACC_L_Z;
#X obj 333 734 outlet ACC_R_X;
#X obj 401 710 outlet ACC_R_Y;
#X obj 472 735 outlet ACC_R_Z;
#X obj 592 709 outlet ENTER;
#X obj 662 735 outlet EXIT;
#X symbolatom 121 200 25 0 0 0 X - -;
#X symbolatom 121 226 25 0 0 0 Y - -;
#X symbolatom 121 252 25 0 0 0 Z - -;
#X symbolatom 321 200 25 0 0 0 X - -;
#X symbolatom 321 226 25 0 0 0 Y - -;
#X symbolatom 321 252 25 0 0 0 Z - -;
#X symbolatom 250 122 60 0 0 0 - - -;
#X symbolatom 249 158 60 0 0 0 - - -;
#X obj 106 603 symbol;
#X obj 139 580 l2s;
#X obj 209 557 list;
#X obj 176 603 symbol;
#X obj 209 580 l2s;
#X obj 279 557 list;
#X obj 246 603 symbol;
#X obj 279 580 l2s;
#X obj 366 557 list;
#X obj 333 603 symbol;
#X obj 366 580 l2s;
#X obj 434 557 list;
#X obj 401 603 symbol;
#X obj 434 580 l2s;
#X obj 505 557 list;
#X obj 472 603 symbol;
#X obj 505 580 l2s;
#X obj 625 557 list;
#X obj 592 603 symbol;
#X obj 625 580 l2s;
#X obj 695 557 list;
#X obj 662 603 symbol;
#X obj 695 580 l2s;
#X obj 156 400 route ACC ENTER EXIT FLEX;
#X obj 795 557 list;
#X obj 762 603 symbol;
#X obj 795 580 l2s;
#X obj 762 735 outlet FLEX_L;
#X obj 795 680 s \$0_FLEX_L;
#X obj 905 557 list;
#X obj 872 603 symbol;
#X obj 905 580 l2s;
#X obj 816 461 route L R;
#X obj 905 680 s \$0_FLEX_R;
#X obj 872 735 outlet FLEX_R;
#X symbolatom 511 200 25 0 0 0 L - -;
#X symbolatom 511 226 25 0 0 0 R - -;
#X text 510 182 FLEX;
#X obj 511 60 r \$0_FLEX_L;
#X obj 511 80 r \$0_FLEX_R;
#X connect 4 0 34 0;
#X connect 4 1 53 0;
#X connect 4 2 56 0;
#X connect 5 0 4 0;
#X connect 5 1 6 0;
#X connect 6 0 59 0;
#X connect 6 1 62 0;
#X connect 6 2 65 0;
#X connect 9 0 11 0;
#X connect 10 0 9 1;
#X connect 12 0 14 0;
#X connect 13 0 12 1;
#X connect 15 0 46 0;
#X connect 16 0 47 0;
#X connect 17 0 48 0;
#X connect 18 0 43 0;
#X connect 19 0 44 0;
#X connect 20 0 45 0;
#X connect 21 0 74 0;
#X connect 22 0 49 0;
#X connect 23 0 50 0;
#X connect 32 0 33 0;
#X connect 33 0 51 0;
#X connect 33 0 54 0;
#X connect 33 0 57 0;
#X connect 33 0 60 0;
#X connect 33 0 63 0;
#X connect 33 0 66 0;
#X connect 33 0 69 0;
#X connect 33 0 72 0;
#X connect 33 0 76 0;
#X connect 33 0 81 0;
#X connect 34 0 52 0;
#X connect 51 0 35 0;
#X connect 52 0 51 1;
#X connect 52 0 24 0;
#X connect 53 0 55 0;
#X connect 54 0 36 0;
#X connect 55 0 54 1;
#X connect 55 0 25 0;
#X connect 56 0 58 0;
#X connect 57 0 37 0;
#X connect 58 0 57 1;
#X connect 58 0 26 0;
#X connect 59 0 61 0;
#X connect 60 0 38 0;
#X connect 61 0 60 1;
#X connect 61 0 27 0;
#X connect 62 0 64 0;
#X connect 63 0 39 0;
#X connect 64 0 63 1;
#X connect 64 0 28 0;
#X connect 65 0 67 0;
#X connect 66 0 40 0;
#X connect 67 0 66 1;
#X connect 67 0 29 0;
#X connect 68 0 70 0;
#X connect 69 0 41 0;
#X connect 70 0 69 1;
#X connect 70 0 30 0;
#X connect 71 0 73 0;
#X connect 72 0 42 0;
#X connect 73 0 72 1;
#X connect 73 0 31 0;
#X connect 74 0 5 0;
#X connect 74 1 68 0;
#X connect 74 2 71 0;
#X connect 74 3 83 0;
#X connect 75 0 77 0;
#X connect 76 0 78 0;
#X connect 77 0 76 1;
#X connect 77 0 79 0;
#X connect 80 0 82 0;
#X connect 81 0 85 0;
#X connect 82 0 81 1;
#X connect 82 0 84 0;
#X connect 83 0 75 0;
#X connect 83 1 80 0;
#X connect 89 0 86 0;
#X connect 90 0 87 0;
#X coords 0 -1 1 1 602 200 1 100 100;
