#N canvas 79 22 1162 808 10;
#X obj 101 105 cnv 15 600 190 empty empty Store 20 12 0 14 -260097
-66577 0;
#X text 148 169 Accelerometers;
#X text 130 182 Left;
#X text 300 182 Right;
#X text 107 198 X;
#X text 107 224 Y;
#X text 107 252 Z;
#X obj 156 400 route ACC ENTER EXIT;
#X obj 156 516 route X Y Z;
#X obj 156 451 route L R;
#X obj 366 516 route X Y Z;
#X text 248 105 Enter State;
#X text 248 145 Exit State;
#X obj 1456 789 symbol;
#X obj 1466 760 symbol;
#X obj 1456 831 s ENTER;
#X obj 1516 789 symbol;
#X obj 1526 760 symbol;
#X obj 1516 830 s EXIT;
#X obj 261 25 r \$0_ACC_R_X;
#X obj 261 53 r \$0_ACC_R_Y;
#X obj 261 81 r \$0_ACC_R_Z;
#X obj 161 25 r \$0_ACC_L_X;
#X obj 161 53 r \$0_ACC_L_Y;
#X obj 161 81 r \$0_ACC_L_Z;
#X obj 156 363 inlet set;
#X obj 365 44 r \$0_ENTER;
#X obj 366 74 r \$0_EXIT;
#X obj 139 662 s \$0_ACC_L_X;
#X obj 209 683 s \$0_ACC_L_Y;
#X obj 279 662 s \$0_ACC_L_Z;
#X obj 369 682 s \$0_ACC_R_X;
#X obj 439 662 s \$0_ACC_R_Y;
#X obj 509 682 s \$0_ACC_R_Z;
#X obj 610 661 s \$0_ENTER;
#X obj 679 680 s \$0_EXIT;
#X obj 825 576 inlet flush;
#X obj 825 605 bang;
#X msg 125 200 Foobar;
#X msg 125 226;
#X msg 125 252;
#X msg 295 200;
#X msg 295 226;
#X msg 295 252;
#X obj 136 311 outlet ACC_L_X;
#X obj 204 335 outlet ACC_L_Y;
#X obj 275 312 outlet ACC_L_Z;
#X obj 346 334 outlet ACC_R_X;
#X obj 414 310 outlet ACC_R_Y;
#X obj 485 335 outlet ACC_R_Z;
#X obj 556 309 outlet ENTER;
#X obj 616 335 outlet EXIT;
#X msg 250 125;
#X msg 250 162;
#X obj 139 577 list;
#X msg 139 557 set;
#X obj 139 597 list trim;
#X obj 209 577 list;
#X msg 209 557 set;
#X obj 209 597 list trim;
#X obj 279 577 list;
#X msg 279 557 set;
#X obj 279 597 list trim;
#X obj 369 577 list;
#X msg 369 557 set;
#X obj 369 597 list trim;
#X obj 439 577 list;
#X msg 439 557 set;
#X obj 439 597 list trim;
#X obj 509 577 list;
#X msg 509 557 set;
#X obj 509 597 list trim;
#X obj 609 577 list;
#X msg 609 557 set;
#X obj 609 597 list trim;
#X obj 679 577 list;
#X msg 679 557 set;
#X obj 679 597 list trim;
#X connect 7 0 9 0;
#X connect 7 1 73 0;
#X connect 7 1 72 1;
#X connect 7 2 76 0;
#X connect 7 2 75 1;
#X connect 8 0 55 0;
#X connect 8 0 54 1;
#X connect 8 1 58 0;
#X connect 8 1 57 1;
#X connect 8 2 61 0;
#X connect 8 2 60 1;
#X connect 9 0 8 0;
#X connect 9 1 10 0;
#X connect 10 0 64 0;
#X connect 10 0 63 1;
#X connect 10 1 67 0;
#X connect 10 1 66 1;
#X connect 10 2 70 0;
#X connect 10 2 69 1;
#X connect 13 0 15 0;
#X connect 14 0 13 1;
#X connect 16 0 18 0;
#X connect 17 0 16 1;
#X connect 19 0 41 0;
#X connect 20 0 42 0;
#X connect 21 0 43 0;
#X connect 22 0 38 0;
#X connect 23 0 39 0;
#X connect 24 0 40 0;
#X connect 25 0 7 0;
#X connect 26 0 52 0;
#X connect 27 0 53 0;
#X connect 36 0 37 0;
#X connect 37 0 28 0;
#X connect 37 0 29 0;
#X connect 37 0 30 0;
#X connect 37 0 31 0;
#X connect 37 0 32 0;
#X connect 37 0 33 0;
#X connect 37 0 34 0;
#X connect 37 0 35 0;
#X connect 38 0 44 0;
#X connect 39 0 45 0;
#X connect 40 0 46 0;
#X connect 41 0 47 0;
#X connect 42 0 48 0;
#X connect 43 0 49 0;
#X connect 52 0 50 0;
#X connect 53 0 51 0;
#X connect 54 0 56 0;
#X connect 55 0 54 0;
#X connect 56 0 28 0;
#X connect 57 0 59 0;
#X connect 58 0 57 0;
#X connect 59 0 29 0;
#X connect 60 0 62 0;
#X connect 61 0 60 0;
#X connect 62 0 30 0;
#X connect 63 0 65 0;
#X connect 64 0 63 0;
#X connect 65 0 31 0;
#X connect 66 0 68 0;
#X connect 67 0 66 0;
#X connect 68 0 32 0;
#X connect 69 0 71 0;
#X connect 70 0 69 0;
#X connect 71 0 33 0;
#X connect 72 0 74 0;
#X connect 73 0 72 0;
#X connect 74 0 34 0;
#X connect 75 0 77 0;
#X connect 76 0 75 0;
#X connect 77 0 35 0;
#X coords 0 -1 1 1 602 200 1 100 100;
