#N canvas 233 125 851 382 10;
#X obj 18 -75 netreceive 8080;
#X floatatom 105 -45 5 0 0 0 - - -;
#X text 42 -47 # Clients:;
#X obj 13 220 outlet;
#X obj -9 2 route ACC_L ACC_R BTN FLEX;
#X obj 107 49 s button;
#X obj -26 58 s accel_left;
#X obj 1 35 s accel_right;
#X obj 172 49 s flex;
#X obj 205 21 print suit_unknown;
#X obj 416 -52 r accel_right;
#X text -111 -78;
#X floatatom 460 34 5 0 0 0 - - -;
#X obj 410 91 svf~ 800 0.5;
#X msg 399 32 \$1;
#X obj 318 73 print;
#X floatatom 379 -6 5 0 0 0 - - -;
#X obj 421 178 table table1;
#X obj 397 133 tabwrite~ table1;
#X obj 311 115 bng 15 250 50 0 empty empty empty 17 7 0 10 -262144
-1 -1;
#X obj 184 224 line~;
#X connect 0 0 4 0;
#X connect 0 1 1 0;
#X connect 4 0 6 0;
#X connect 4 1 7 0;
#X connect 4 2 5 0;
#X connect 4 3 8 0;
#X connect 4 4 9 0;
#X connect 12 0 13 1;
#X connect 13 0 18 0;
#X connect 14 0 15 0;
#X connect 14 0 13 0;
#X connect 16 0 14 0;
#X connect 19 0 18 0;
