#N canvas 466 257 851 382 10;
#X obj 18 -75 netreceive 8080;
#X floatatom 105 -45 5 0 0 0 - - -;
#X text 42 -47 # Clients:;
#X obj 468 153 outlet;
#X obj -9 2 route ACC_L ACC_R BTN FLEX;
#X obj 107 49 s button;
#X obj -26 58 s accel_left;
#X obj 1 35 s accel_right;
#X obj 172 49 s flex;
#X obj 205 21 print suit_unknown;
#X obj 416 9 r accel_right;
#X obj 506 8 r accel_left;
#X obj 416 36 accelfilter;
#X msg 489 63 L;
#X msg 452 63 R;
#X floatatom 506 -55 5 0 0 0 - - -;
#X floatatom 544 -56 5 0 0 0 - - -;
#X floatatom 580 -56 5 0 0 0 - - -;
#X text 504 -72 x;
#X text 544 -74 y;
#X text 578 -73 z;
#X obj 506 -21 pack f f f;
#X obj 538 -38 bng 15 250 50 0 empty empty empty 17 7 0 10 -262144
-1 -1;
#X msg 415 63 ACC;
#X obj 506 35 accelfilter;
#X obj 422 87 list append;
#X obj 468 113 list append;
#X obj 468 133 list trim;
#X text 498 -83 Fake L accel;
#X floatatom 396 -55 5 0 0 0 - - -;
#X floatatom 434 -56 5 0 0 0 - - -;
#X floatatom 470 -56 5 0 0 0 - - -;
#X text 394 -72 x;
#X text 434 -74 y;
#X text 468 -73 z;
#X obj 396 -21 pack f f f;
#X obj 428 -38 bng 15 250 50 0 empty empty empty 17 7 0 10 -262144
-1 -1;
#X text 388 -83 Fake R accel;
#X connect 0 0 4 0;
#X connect 0 1 1 0;
#X connect 4 0 6 0;
#X connect 4 1 7 0;
#X connect 4 2 5 0;
#X connect 4 3 8 0;
#X connect 4 4 9 0;
#X connect 10 0 12 0;
#X connect 11 0 24 0;
#X connect 12 0 14 0;
#X connect 12 0 23 0;
#X connect 12 0 26 1;
#X connect 13 0 25 1;
#X connect 14 0 25 1;
#X connect 15 0 21 0;
#X connect 15 0 22 0;
#X connect 16 0 21 1;
#X connect 16 0 22 0;
#X connect 17 0 21 2;
#X connect 17 0 22 0;
#X connect 21 0 24 0;
#X connect 22 0 21 0;
#X connect 23 0 25 0;
#X connect 24 0 13 0;
#X connect 24 0 23 0;
#X connect 24 0 26 1;
#X connect 25 0 26 0;
#X connect 26 0 27 0;
#X connect 27 0 3 0;
#X connect 29 0 35 0;
#X connect 29 0 36 0;
#X connect 30 0 35 1;
#X connect 30 0 36 0;
#X connect 31 0 35 2;
#X connect 31 0 36 0;
#X connect 35 0 12 0;
#X connect 36 0 35 0;
