#N canvas 270 110 853 624 10;
#X obj -109 267 lib/syn-classicsynth;
#X obj 84 267 lib/syn-cranks;
#X obj 287 267 lib/syn-bellsynth;
#X obj 489 267 lib/syn-stringsynth;
#X obj 439 528 lib/eee-adsr~;
#X obj 424 600 *~;
#X obj 416 633 dac~;
#X floatatom 58 157 5 0 0 1 notenumber - -;
#X obj 58 178 mtof;
#X floatatom 58 203 5 0 0 1 hertz - -;
#X msg 58 134 40;
#X obj 58 114 loadbang;
#N canvas 341 174 843 560 multispigot4 0;
#X obj 491 55 inlet;
#X obj 97 230 outlet~;
#X obj -3 55 inlet~;
#X obj 491 110 int;
#X obj -3 163 spigot~;
#X obj 491 137 s index;
#X obj 22 81 r index;
#X obj 97 55 inlet~;
#X obj 97 163 spigot~;
#X obj 122 81 r index;
#X obj 197 55 inlet~;
#X obj 197 163 spigot~;
#X obj 222 81 r index;
#X obj 297 55 inlet~;
#X obj 297 163 spigot~;
#X obj 322 81 r index;
#X obj 427 55 loadbang;
#X msg 427 92 0;
#X msg 322 130 0;
#X msg 367 130 1;
#X obj 322 107 select 3;
#X obj 222 107 select 2;
#X msg 222 130 0;
#X msg 267 130 1;
#X msg 122 130 0;
#X msg 167 130 1;
#X obj 122 108 select 1;
#X obj 22 107 select 0;
#X msg 22 130 0;
#X msg 67 130 1;
#X obj 491 81 clip 0 3;
#X connect 0 0 30 0;
#X connect 2 0 4 0;
#X connect 3 0 5 0;
#X connect 4 0 1 0;
#X connect 6 0 27 0;
#X connect 7 0 8 0;
#X connect 8 0 1 0;
#X connect 9 0 26 0;
#X connect 10 0 11 0;
#X connect 11 0 1 0;
#X connect 12 0 21 0;
#X connect 13 0 14 0;
#X connect 14 0 1 0;
#X connect 15 0 20 0;
#X connect 16 0 17 0;
#X connect 17 0 5 0;
#X connect 18 0 14 1;
#X connect 19 0 14 1;
#X connect 20 0 18 0;
#X connect 20 1 19 0;
#X connect 21 0 22 0;
#X connect 21 1 23 0;
#X connect 22 0 11 1;
#X connect 23 0 11 1;
#X connect 24 0 8 1;
#X connect 25 0 8 1;
#X connect 26 0 24 0;
#X connect 26 1 25 0;
#X connect 27 0 28 0;
#X connect 27 1 29 0;
#X connect 28 0 4 1;
#X connect 29 0 4 1;
#X connect 30 0 3 0;
#X restore 424 473 pd multispigot4;
#X obj 265 87 inlet on_off;
#X obj 351 87 inlet midi_note;
#X obj 455 87 inlet synth_index;
#X obj 265 108 s \$0-on-off;
#X obj 351 108 s \$0-midi-note;
#X obj 95 134 r \$0-midi-note;
#X obj 439 506 r \$0-on-off;
#X obj 455 108 s \$0-synth-index;
#X obj 511 424 r \$0-synth-index;
#X msg 217 55 0;
#X msg 184 55 1;
#X floatatom 511 449 5 0 0 0 - - -;
#X connect 0 0 12 0;
#X connect 1 0 12 1;
#X connect 2 0 12 2;
#X connect 3 0 12 3;
#X connect 4 0 5 1;
#X connect 5 0 6 0;
#X connect 5 0 6 1;
#X connect 7 0 8 0;
#X connect 8 0 9 0;
#X connect 9 0 0 0;
#X connect 9 0 1 0;
#X connect 9 0 2 0;
#X connect 9 0 3 0;
#X connect 10 0 7 0;
#X connect 11 0 10 0;
#X connect 12 0 5 0;
#X connect 13 0 16 0;
#X connect 14 0 17 0;
#X connect 15 0 20 0;
#X connect 18 0 7 0;
#X connect 19 0 4 0;
#X connect 21 0 24 0;
#X connect 22 0 16 0;
#X connect 23 0 16 0;
#X connect 24 0 12 4;
